<?xml version="1.0" encoding="UTF-8"?>
<svg version="1.1" xmlns="http://www.w3.org/2000/svg" width="280" height="53">
<path d="M0 0 C0 0.66 0 1.32 0 2 C0.78375 2.04125 1.5675 2.0825 2.375 2.125 C9.43238805 3.82850746 16.04345856 7.80715254 20 14 C21.59100981 17.18201962 21.12730647 20.52221867 21 24 C20.97164063 24.82628906 20.94328125 25.65257813 20.9140625 26.50390625 C20.47791587 33.30571678 19.1754557 38.19812732 13.875 42.875 C10.30477692 44.27204381 7.0180987 44.50285269 3.20703125 44.69140625 C0.79576845 44.80264681 0.79576845 44.80264681 -1 47 C-3.61064404 47.23185651 -6.07603751 47.3325134 -8.6875 47.3125 C-9.4491748 47.30686035 -10.21084961 47.3012207 -10.99560547 47.29541016 C-24.668217 47.00873094 -42.72914776 43.90265187 -53 34 C-53 33.01 -53 32.02 -53 31 C-54.65385233 29.65080468 -56.321702 28.31866272 -58 27 C-61.42932414 21.91867586 -59.81344495 15.74117344 -59 10 C-58.02269456 5.32241394 -56.99339857 2.01954064 -53.625 -1.4375 C-38.52652261 -10.42468892 -15.42100644 -6.73910124 0 0 Z " fill="#BABBBE" transform="translate(60,6)"/>
<path d="M0 0 C3.24120956 -0.37098182 5.43423384 0.15187927 8.14453125 1.91015625 C9.84028905 3.26782733 11.50640292 4.663169 13.14453125 6.08984375 C15.97324551 8.53451359 18.91027777 10.72054728 21.9453125 12.90234375 C22.87601563 13.57265625 23.80671875 14.24296875 24.765625 14.93359375 C25.44367187 15.41828125 26.12171875 15.90296875 26.8203125 16.40234375 C26.51288347 18.71552336 26.19923548 21.02787727 25.8828125 23.33984375 C25.70878906 24.62761719 25.53476562 25.91539063 25.35546875 27.2421875 C24.8203125 30.40234375 24.8203125 30.40234375 23.8203125 31.40234375 C5.77055229 32.51705578 -13.70048025 29.98570955 -28.1796875 18.40234375 C-27.5196875 14.11234375 -26.8596875 9.82234375 -26.1796875 5.40234375 C-17.46829799 3.12078935 -8.82896237 1.62971886 0 0 Z " fill="#B1191E" transform="translate(35.1796875,21.59765625)"/>
<path d="M0 0 C6.4030559 3.00202621 11.76959274 6.53918547 15 13 C15.09633324 15.69733084 15.0985482 18.30784228 15 21 C14.97164062 21.82628906 14.94328125 22.65257813 14.9140625 23.50390625 C14.47791587 30.30571678 13.1754557 35.19812732 7.875 39.875 C3.67669984 41.5178131 -0.52504532 41.74801226 -5 42 C-6.07310858 38.72814447 -5.89263102 36.57052408 -5.0625 33.25 C-4.86785156 32.45078125 -4.67320313 31.6515625 -4.47265625 30.828125 C-4.31667969 30.22484375 -4.16070312 29.6215625 -4 29 C-4.53625 28.76152344 -5.0725 28.52304687 -5.625 28.27734375 C-8.65524492 26.64759031 -11.26285107 24.64615462 -14 22.5625 C-15.03125 21.78003906 -16.0625 20.99757813 -17.125 20.19140625 C-18.07375 19.46824219 -19.0225 18.74507812 -20 18 C-21.175625 17.30197266 -21.175625 17.30197266 -22.375 16.58984375 C-24 15 -24 15 -24.25 11.8125 C-24.1675 10.884375 -24.085 9.95625 -24 9 C-21.14051663 7.28511698 -18.26039972 5.60834774 -15.375 3.9375 C-14.56675781 3.45216797 -13.75851563 2.96683594 -12.92578125 2.46679688 C-5.3039165 -1.90183292 -5.3039165 -1.90183292 0 0 Z " fill="#2F9CD4" transform="translate(66,9)"/>
<path d="M0 0 C2.64 0 5.28 0 8 0 C10.31 4.29 12.62 8.58 15 13 C15.33 8.71 15.66 4.42 16 0 C17.98 0 19.96 0 22 0 C22.22556502 4.10341114 22.42750038 8.20764988 22.625 12.3125 C22.68945312 13.47974609 22.75390625 14.64699219 22.8203125 15.84960938 C22.89765625 17.52700195 22.89765625 17.52700195 22.9765625 19.23828125 C23.02893066 20.26993408 23.08129883 21.30158691 23.13525391 22.36450195 C23 25 23 25 21 28 C18.125 28.5625 18.125 28.5625 15 28 C11.68505948 24.11678396 9.8779615 19.69490374 8 15 C7.93941406 15.85464844 7.87882812 16.70929687 7.81640625 17.58984375 C7.73261719 18.69457031 7.64882812 19.79929687 7.5625 20.9375 C7.48128906 22.03964844 7.40007812 23.14179688 7.31640625 24.27734375 C7 27 7 27 6 28 C4.02 28 2.04 28 0 28 C0 18.76 0 9.52 0 0 Z " fill="#95949E" transform="translate(102,5)"/>
<path d="M0 0 C6.4030559 3.00202621 11.76959274 6.53918547 15 13 C15.13415472 15.6723621 15.04318541 18.32250488 15 21 C1.94036187 18.21916223 -11.07517452 15.35782839 -24 12 C-24 11.01 -24 10.02 -24 9 C-21.14051663 7.28511698 -18.26039972 5.60834774 -15.375 3.9375 C-14.56675781 3.45216797 -13.75851563 2.96683594 -12.92578125 2.46679688 C-5.3039165 -1.90183292 -5.3039165 -1.90183292 0 0 Z " fill="#32A045" transform="translate(66,9)"/>
<path d="M0 0 C3.526875 -0.12375 3.526875 -0.12375 7.125 -0.25 C7.85348145 -0.28641602 8.58196289 -0.32283203 9.33251953 -0.36035156 C14.39696717 -0.4455145 17.17407083 0.75306901 21 4 C24.08918979 8.40927962 23.83528701 13.85753734 23 19 C20.28957442 24.11264223 17.37210671 25.85115732 12 28 C8.04 28 4.08 28 0 28 C0 18.76 0 9.52 0 0 Z M7 5 C7 10.61 7 16.22 7 22 C11.66357674 22.46084988 11.66357674 22.46084988 13.7890625 20.8125 C15.38009461 18.43108419 15.40042889 16.84803599 15.375 14 C15.38273438 13.13375 15.39046875 12.2675 15.3984375 11.375 C15.16970119 8.98025475 15.16970119 8.98025475 13.7890625 7.25 C11.66004217 5.58460019 11.66004217 5.58460019 7 5 Z " fill="#BEBEC2" transform="translate(234,5)"/>
<path d="M0 0 C6.59850237 -0.4630528 11.89958687 0.65723104 18.24462891 2.49804688 C24.14462595 4.15951463 29.89377776 4.77258018 36 5 C36 5.66 36 6.32 36 7 C35.34 7.33 34.68 7.66 34 8 C33.16374091 10.31345827 33.16374091 10.31345827 32.5 13 C31.78125 15.75 31.78125 15.75 31 18 C27.67010601 19.66494699 24.16355936 18.33701962 20.625 17.6875 C19.85671875 17.55666016 19.0884375 17.42582031 18.296875 17.29101562 C14.5717154 16.62396715 11.2763941 16.00613435 8 14 C8 13.34 8 12.68 8 12 C7.01 12.33 6.02 12.66 5 13 C2.63477442 12.07796291 0.29598193 11.08301035 -2 10 C-1.34 6.7 -0.68 3.4 0 0 Z " fill="#C12E34" transform="translate(16,33)"/>
<path d="M0 0 C2.31 0 4.62 0 7 0 C7.33 6.6 7.66 13.2 8 20 C9.65 20.33 11.3 20.66 13 21 C13.33 14.07 13.66 7.14 14 0 C16.31 0 18.62 0 21 0 C21.11654436 3.5622231 21.1873639 7.12395342 21.25 10.6875 C21.30027344 12.19860352 21.30027344 12.19860352 21.3515625 13.74023438 C21.45070627 21.2503749 21.45070627 21.2503749 19.109375 25.14453125 C15.53446188 28.28913076 12.8833218 28.33017972 8.26171875 28.29296875 C4.9457722 27.86344199 3.25012373 26.39075646 1 24 C-0.25248502 21.49502996 -0.11374406 19.79146726 -0.09765625 16.9921875 C-0.09443359 16.00605469 -0.09121094 15.01992188 -0.08789062 14.00390625 C-0.07951172 12.97136719 -0.07113281 11.93882813 -0.0625 10.875 C-0.05798828 9.83472656 -0.05347656 8.79445313 -0.04882812 7.72265625 C-0.03701952 5.14838038 -0.02055075 2.57421854 0 0 Z " fill="#BBBBBE" transform="translate(259,5)"/>
<path d="M0 0 C5.61 0 11.22 0 17 0 C17 1.65 17 3.3 17 5 C13.78548731 6.60725635 10.56387464 6.05748185 7 6 C7 7.32 7 8.64 7 10 C9.97 10 12.94 10 16 10 C17 14 17 14 16 16 C13.03 16 10.06 16 7 16 C7 17.98 7 19.96 7 22 C10.3 22 13.6 22 17 22 C18 26 18 26 17.04296875 27.76953125 C13.89270634 29.66691683 10.82434246 29.0569903 7.3125 28.6875 C4.899375 28.460625 2.48625 28.23375 0 28 C0 18.76 0 9.52 0 0 Z " fill="#9896A1" transform="translate(150,5)"/>
<path d="M0 0 C2.64 0 5.28 0 8 0 C9.32 4.62 10.64 9.24 12 14 C13.65 9.38 15.3 4.76 17 0 C19.31 0 21.62 0 24 0 C23.39346681 6.14957258 21.58892671 11.57801866 19.5 17.375 C19.17902344 18.28894531 18.85804688 19.20289062 18.52734375 20.14453125 C16.14388321 26.85611679 16.14388321 26.85611679 15 28 C13.00041636 28.04080783 10.99954746 28.04254356 9 28 C6.39333865 22.49704825 4.2004572 16.94929192 2.25 11.1875 C2.02739502 10.54159912 1.80479004 9.89569824 1.57543945 9.23022461 C0.47964491 5.92908444 0 3.52831971 0 0 Z " fill="#BEBDC2" transform="translate(125,5)"/>
<path d="M0 0 C1.48831242 0.00667405 2.97660807 0.01863442 4.46484375 0.03515625 C5.22345703 0.03966797 5.98207031 0.04417969 6.76367188 0.04882812 C8.64326246 0.06064945 10.52281274 0.07858547 12.40234375 0.09765625 C12.40234375 1.74765625 12.40234375 3.39765625 12.40234375 5.09765625 C9.18783106 6.7049126 5.96621839 6.1551381 2.40234375 6.09765625 C2.40234375 7.41765625 2.40234375 8.73765625 2.40234375 10.09765625 C5.37234375 10.09765625 8.34234375 10.09765625 11.40234375 10.09765625 C11.78453142 11.75380282 12.11629477 13.42222649 12.40234375 15.09765625 C11.40234375 16.09765625 11.40234375 16.09765625 9.3359375 16.1953125 C8.51222656 16.18371094 7.68851563 16.17210938 6.83984375 16.16015625 C6.01355469 16.15113281 5.18726563 16.14210938 4.3359375 16.1328125 C3.37880859 16.11541016 3.37880859 16.11541016 2.40234375 16.09765625 C2.40234375 18.07765625 2.40234375 20.05765625 2.40234375 22.09765625 C5.70234375 22.09765625 9.00234375 22.09765625 12.40234375 22.09765625 C12.73234375 23.41765625 13.06234375 24.73765625 13.40234375 26.09765625 C11.40234375 28.09765625 11.40234375 28.09765625 7.9609375 28.328125 C6.58717071 28.32413536 5.21340261 28.30938802 3.83984375 28.28515625 C3.14181641 28.28451172 2.44378906 28.28386719 1.72460938 28.28320312 C-3.45734467 28.23796783 -3.45734467 28.23796783 -4.59765625 27.09765625 C-4.69737411 25.18307343 -4.72846214 23.26483308 -4.73046875 21.34765625 C-4.73175781 20.18234375 -4.73304688 19.01703125 -4.734375 17.81640625 C-4.73050781 16.58921875 -4.72664062 15.36203125 -4.72265625 14.09765625 C-4.72652344 12.87046875 -4.73039063 11.64328125 -4.734375 10.37890625 C-4.73308594 9.21359375 -4.73179687 8.04828125 -4.73046875 6.84765625 C-4.72934082 5.77 -4.72821289 4.69234375 -4.72705078 3.58203125 C-4.5217355 -0.36002218 -4.10997307 0.11156279 0 0 Z " fill="#B4B4BA" transform="translate(219.59765625,4.90234375)"/>
<path d="M0 0 C0.80824219 0.10183594 1.61648437 0.20367187 2.44921875 0.30859375 C3.06410156 0.39238281 3.67898437 0.47617188 4.3125 0.5625 C4.3125 2.2125 4.3125 3.8625 4.3125 5.5625 C1.23927456 6.47308531 -1.48847361 6.65136184 -4.6875 6.5625 C-4.6875 7.5525 -4.6875 8.5425 -4.6875 9.5625 C-3.78 9.81 -2.8725 10.0575 -1.9375 10.3125 C1.50266768 11.63564142 3.07779862 12.66566488 5.3125 15.5625 C6.65800036 18.97110091 6.41766178 20.28022365 5.125 23.75 C3.20516428 26.72905543 2.51698005 27.35091214 -0.6875 28.5625 C-3.23046875 28.79296875 -3.23046875 28.79296875 -5.875 28.75 C-6.75542969 28.74355469 -7.63585937 28.73710938 -8.54296875 28.73046875 C-10.6875 28.5625 -10.6875 28.5625 -11.6875 27.5625 C-11.72830783 25.56291636 -11.73004356 23.56204746 -11.6875 21.5625 C-8.7175 21.5625 -5.7475 21.5625 -2.6875 21.5625 C-2.6875 20.5725 -2.6875 19.5825 -2.6875 18.5625 C-4.39208563 17.19834135 -4.39208563 17.19834135 -6.5625 16.0625 C-9.62540236 14.34990943 -10.66754629 13.59243057 -12.6875 10.5625 C-12.46527778 4.34027778 -12.46527778 4.34027778 -9.8125 1.6875 C-6.24548839 -0.20091791 -3.92918079 -0.51250184 0 0 Z " fill="#B0B0B4" transform="translate(180.6875,4.4375)"/>
<path d="M0 0 C6.27 0 12.54 0 19 0 C19 1.65 19 3.3 19 5 C18 6 18 6 15.4375 6.0625 C14.2309375 6.0315625 14.2309375 6.0315625 13 6 C13.00523682 6.63091553 13.01047363 7.26183105 13.01586914 7.91186523 C13.03657826 10.75373347 13.04964066 13.59558588 13.0625 16.4375 C13.07087891 17.43072266 13.07925781 18.42394531 13.08789062 19.44726562 C13.09111328 20.39150391 13.09433594 21.33574219 13.09765625 22.30859375 C13.10289307 23.18314209 13.10812988 24.05769043 13.11352539 24.95874023 C13 27 13 27 12 28 C10.02 28 8.04 28 6 28 C5.67 21.07 5.34 14.14 5 7 C3.02 6.34 1.04 5.68 -1 5 C-0.67 3.35 -0.34 1.7 0 0 Z " fill="#BBBBC0" transform="translate(187,5)"/>
<path d="M0 0 C0.66 0.33 1.32 0.66 2 1 C1.81824219 1.69609375 1.63648438 2.3921875 1.44921875 3.109375 C0.9372601 6.40371762 1.25102842 8.97003654 1.8125 12.25 C1.98394531 13.30703125 2.15539063 14.3640625 2.33203125 15.453125 C2.55246094 16.29359375 2.77289063 17.1340625 3 18 C3.66 18.33 4.32 18.66 5 19 C5.66 19.33 6.32 19.66 7 20 C8.66194453 20.35613097 10.328451 20.69208308 12 21 C8.5980513 23.09350689 5.94727588 23.17942163 2 23 C1.67 26.3 1.34 29.6 1 33 C-3.06786961 30.91109398 -5.02861951 29.13466527 -7 25 C-7.43465987 17.70527341 -6.33499492 9.58447715 -3 3 C-1.3984375 1.2578125 -1.3984375 1.2578125 0 0 Z " fill="#968E92" transform="translate(7,4)"/>
<path d="M0 0 C1.134375 0.020625 2.26875 0.04125 3.4375 0.0625 C3.46636338 4.54165328 3.48425187 9.02078291 3.5 13.5 C3.50837891 14.77939453 3.51675781 16.05878906 3.52539062 17.37695312 C3.52861328 18.59189453 3.53183594 19.80683594 3.53515625 21.05859375 C3.54039307 22.18450928 3.54562988 23.3104248 3.55102539 24.47045898 C3.4375 27.0625 3.4375 27.0625 2.4375 28.0625 C0.43791636 28.10330783 -1.56295254 28.10504356 -3.5625 28.0625 C-4.8866409 25.41421821 -4.69207042 23.39569888 -4.6953125 20.43359375 C-4.69660156 19.31662109 -4.69789062 18.19964844 -4.69921875 17.04882812 C-4.69535156 15.87771484 -4.69148438 14.70660156 -4.6875 13.5 C-4.69136719 12.32501953 -4.69523437 11.15003906 -4.69921875 9.93945312 C-4.69792969 8.82376953 -4.69664063 7.70808594 -4.6953125 6.55859375 C-4.69418457 5.52919678 -4.69305664 4.4997998 -4.69189453 3.43920898 C-4.48265437 -0.40409856 -4.00681918 0.07029507 0 0 Z " fill="#898792" transform="translate(95.5625,4.9375)"/>
<path d="M0 0 C5.61 0 11.22 0 17 0 C17 1.65 17 3.3 17 5 C14.04335481 6.4783226 11.25770263 6.06032783 8 6 C8 5.34 8 4.68 8 4 C6.02 4 4.04 4 2 4 C2 7.96 2 11.92 2 16 C3.32 16.33 4.64 16.66 6 17 C6 18.98 6 20.96 6 23 C9.3 23 12.6 23 16 23 C16 23.99 16 24.98 16 26 C11.05 26 6.1 26 1 26 C0.3608091 17.29102398 -0.11968141 8.73674295 0 0 Z " fill="#B8B7BC" transform="translate(150,5)"/>
<path d="M0 0 C1.32 0 2.64 0 4 0 C4.39318947 3.93590686 4.76142364 7.87375609 5.125 11.8125 C5.23714844 12.93205078 5.34929687 14.05160156 5.46484375 15.20507812 C5.60986328 16.81479492 5.60986328 16.81479492 5.7578125 18.45703125 C5.89920654 19.9416687 5.89920654 19.9416687 6.04345703 21.45629883 C6 24 6 24 4 27 C1.125 27.5625 1.125 27.5625 -2 27 C-4.61806955 24.03744762 -5.9052475 22.08965379 -6.25 18.125 C-6.1675 17.42375 -6.085 16.7225 -6 16 C-4.68 16 -3.36 16 -2 16 C-2 16.66 -2 17.32 -2 18 C-1.34 18 -0.68 18 0 18 C-0.33 17.01 -0.66 16.02 -1 15 C-0.91255992 12.4191074 -0.77131505 9.88308522 -0.5625 7.3125 C-0.51029297 6.61060547 -0.45808594 5.90871094 -0.40429688 5.18554688 C-0.27492135 3.45661946 -0.13817469 1.72824645 0 0 Z " fill="#AFB0B1" transform="translate(119,6)"/>
<path d="M0 0 C1.98 0 3.96 0 6 0 C5.01 0.495 5.01 0.495 4 1 C4.33 1.66 4.66 2.32 5 3 C5.98742187 3 6.97484375 3 7.9921875 3 C15.66145833 3 23.33072917 3 31 3 C31.042721 4.66611905 31.04063832 6.33382885 31 8 C30 9 30 9 27.49609375 9.09765625 C25.98208984 9.08025391 25.98208984 9.08025391 24.4375 9.0625 C23.42558594 9.05347656 22.41367188 9.04445313 21.37109375 9.03515625 C20.19740234 9.01775391 20.19740234 9.01775391 19 9 C18.67 8.34 18.34 7.68 18 7 C17.34 7.66 16.68 8.32 16 9 C12.375 9.125 12.375 9.125 9 9 C8.67 8.34 8.34 7.68 8 7 C7.67 7.66 7.34 8.32 7 9 C4.36 9 1.72 9 -1 9 C-0.67 6.03 -0.34 3.06 0 0 Z M3 5 C3 5.99 3 6.98 3 8 C3.66 8 4.32 8 5 8 C5 7.01 5 6.02 5 5 C4.34 5 3.68 5 3 5 Z M12 5 C13 7 13 7 13 7 Z M23 6 C27 7 27 7 27 7 Z " fill="#F3EE63" transform="translate(91,41)"/>
<path d="M0 0 C4.57252253 0.88010942 7.31578684 3.23684013 11 6 C10.34 10.62 9.68 15.24 9 20 C4.38 20 -0.24 20 -5 20 C-2.94921875 11.50390625 -2.94921875 11.50390625 -2 9 C-1.01 8.67 -0.02 8.34 1 8 C1 10.97 1 13.94 1 17 C1.66 17.33 2.32 17.66 3 18 C3 14.37 3 10.74 3 7 C3.99 6.67 4.98 6.34 6 6 C5.01 5.195625 4.02 4.39125 3 3.5625 C2.01 2.716875 1.02 1.87125 0 1 C0 0.67 0 0.34 0 0 Z " fill="#BF1A21" transform="translate(51,32)"/>
<path d="M0 0 C2.64 0 5.28 0 8 0 C9.25 6.625 9.25 6.625 7 10 C5.35 9.01 3.7 8.02 2 7 C2 9.64 2 12.28 2 15 C3.32 15.33 4.64 15.66 6 16 C6 19.96 6 23.92 6 28 C4.02 28 2.04 28 0 28 C0 18.76 0 9.52 0 0 Z " fill="#A9A8B0" transform="translate(102,5)"/>
<path d="M0 0 C1.32 0 2.64 0 4 0 C4.33 1.32 4.66 2.64 5 4 C5.78375 4 6.5675 4 7.375 4 C10.58333333 4 13.79166667 4 17 4 C17 5.32 17 6.64 17 8 C17.66 6.68 18.32 5.36 19 4 C20.32 4 21.64 4 23 4 C23.042721 5.66611905 23.04063832 7.33382885 23 9 C22 10 22 10 19.49975586 10.11352539 C18.41573486 10.10828857 17.33171387 10.10305176 16.21484375 10.09765625 C15.04501953 10.09443359 13.87519531 10.09121094 12.66992188 10.08789062 C10.82237305 10.07532227 10.82237305 10.07532227 8.9375 10.0625 C7.08415039 10.05573242 7.08415039 10.05573242 5.19335938 10.04882812 C2.12885883 10.03699608 -0.93554721 10.02051173 -4 10 C-3.67 8.35 -3.34 6.7 -3 5 C-1.68 4.67 -0.36 4.34 1 4 C0.67 2.68 0.34 1.36 0 0 Z M3 5 C4 8 4 8 4 8 Z " fill="#F3EE63" transform="translate(230,40)"/>
<path d="M0 0 C2.97 0 5.94 0 9 0 C9.474377 7.28695785 9.28670939 11.97181491 5 18 C3.35 18 1.7 18 0 18 C-0.125 10.25 -0.125 10.25 1 8 C-4.40787385 9.09786425 -4.40787385 9.09786425 -8 13 C-8 11.35 -8 9.7 -8 8 C-7.36191406 7.82984375 -6.72382812 7.6596875 -6.06640625 7.484375 C-4.82697266 7.12085938 -4.82697266 7.12085938 -3.5625 6.75 C-2.73878906 6.51796875 -1.91507812 6.2859375 -1.06640625 6.046875 C1.19995468 5.19229321 1.19995468 5.19229321 1.78515625 2.890625 C1.85605469 2.26671875 1.92695312 1.6428125 2 1 C1.34 0.67 0.68 0.34 0 0 Z " fill="#4FBBE9" transform="translate(71,29)"/>
<path d="M0 0 C1.32 0 2.64 0 4 0 C3.67 2.64 3.34 5.28 3 8 C3.66 8 4.32 8 5 8 C5 6.68 5 5.36 5 4 C6.32 4 7.64 4 9 4 C9 5.65 9 7.3 9 9 C5.57426063 9.77528479 2.42760755 10.11918778 -1.08203125 10.09765625 C-2.01337891 10.09443359 -2.94472656 10.09121094 -3.90429688 10.08789062 C-4.86400391 10.07951172 -5.82371094 10.07113281 -6.8125 10.0625 C-8.28106445 10.05573242 -8.28106445 10.05573242 -9.77929688 10.04882812 C-12.18626111 10.03708684 -14.59309857 10.02066419 -17 10 C-16.67 8.35 -16.34 6.7 -16 5 C-10.31675087 3.8035265 -4.79103461 4 1 4 C0.67 2.68 0.34 1.36 0 0 Z " fill="#F3EE63" transform="translate(177,40)"/>
<path d="M0 0 C0.99 0 1.98 0 3 0 C3 0.66 3 1.32 3 2 C3.84304687 2 4.68609375 2 5.5546875 2 C11.36979167 2 17.18489583 2 23 2 C22.67 2.7425 22.34 3.485 22 4.25 C20.77217129 7.13883312 20.77217129 7.13883312 21 11 C18.69 11 16.38 11 14 11 C14 10.01 14 9.02 14 8 C13.34 8 12.68 8 12 8 C11.67 7.34 11.34 6.68 11 6 C10.67 6.66 10.34 7.32 10 8 C8.02 8 6.04 8 4 8 C3.67 7.34 3.34 6.68 3 6 C2.67 6.66 2.34 7.32 2 8 C1.01 8 0.02 8 -1 8 C-1.125 2.25 -1.125 2.25 0 0 Z M7 4 C8 6 8 6 8 6 Z " fill="#F3EE63" transform="translate(124,42)"/>
<path d="M0 0 C3.63763256 1.91454345 5.52526069 3.14143551 7 7 C7.30078125 9.69140625 7.30078125 9.69140625 7.3125 12.5625 C7.32925781 13.51253906 7.34601563 14.46257813 7.36328125 15.44140625 C6.94916641 18.35802152 6.27810098 19.2147863 4 21 C4 20.01 4 19.02 4 18 C3.05125 18.515625 2.1025 19.03125 1.125 19.5625 C0.09375 20.036875 -0.9375 20.51125 -2 21 C-2.66 20.67 -3.32 20.34 -4 20 C-3.34 19.34 -2.68 18.68 -2 18 C-1.68076525 15.66439849 -1.68076525 15.66439849 -1.75 13.0625 C-1.74226562 11.74958984 -1.74226562 11.74958984 -1.734375 10.41015625 C-1.84166163 7.73894366 -1.84166163 7.73894366 -4 5 C-2.02 4.34 -0.04 3.68 2 3 C1.34 2.67 0.68 2.34 0 2 C0 1.34 0 0.68 0 0 Z " fill="#A1A0A6" transform="translate(250,6)"/>
<path d="M0 0 C1.65 0 3.3 0 5 0 C5 1.98 5 3.96 5 6 C10.80782636 4.73532894 10.80782636 4.73532894 16 2 C16.99 2 17.98 2 19 2 C18.6655974 5.09322404 18.4404882 6.58887768 16.125 8.75 C12.26742869 11.01915959 9.20155338 11.10969412 4.8125 11.0625 C3.18248047 11.04896484 3.18248047 11.04896484 1.51953125 11.03515625 C0.68808594 11.02355469 -0.14335937 11.01195312 -1 11 C-0.67 7.37 -0.34 3.74 0 0 Z " fill="#EEEEEF" transform="translate(235,22)"/>
<path d="M0 0 C0.33 0 0.66 0 1 0 C1 1.65 1 3.3 1 5 C3.97 5 6.94 5 10 5 C10.38218767 6.65614657 10.71395102 8.32457024 11 10 C10 11 10 11 7.93359375 11.09765625 C7.10988281 11.08605469 6.28617188 11.07445312 5.4375 11.0625 C4.61121094 11.05347656 3.78492188 11.04445313 2.93359375 11.03515625 C2.29550781 11.02355469 1.65742188 11.01195312 1 11 C1 12.98 1 14.96 1 17 C4.3 17 7.6 17 11 17 C11.33 18.32 11.66 19.64 12 21 C10.02 21.99 10.02 21.99 8 23 C8 22.34 8 21.68 8 21 C8.66 21 9.32 21 10 21 C10 20.01 10 19.02 10 18 C6.7 18 3.4 18 0 18 C0 15.69 0 13.38 0 11 C-1.32 11 -2.64 11 -4 11 C-4 8.36 -4 5.72 -4 3 C-2.68 3 -1.36 3 0 3 C0 2.01 0 1.02 0 0 Z " fill="#ADACB3" transform="translate(221,10)"/>
<path d="M0 0 C4.71652565 -0.22937511 8.3974273 0.53793545 12.875 2 C14.60363281 2.556875 14.60363281 2.556875 16.3671875 3.125 C17.23601563 3.41375 18.10484375 3.7025 19 4 C18.01 4.33 17.02 4.66 16 5 C16.33 6.11375 16.66 7.2275 17 8.375 C18 12 18 12 18 14 C18.99 15.485 18.99 15.485 20 17 C16.27514862 15.34351561 13.23515579 13.02526235 10 10.5625 C8.96875 9.78003906 7.9375 8.99757813 6.875 8.19140625 C5.92625 7.46824219 4.9775 6.74507812 4 6 C3.21625 5.47277344 2.4325 4.94554687 1.625 4.40234375 C1.08875 3.93957031 0.5525 3.47679687 0 3 C0 2.01 0 1.02 0 0 Z " fill="#1A81C0" transform="translate(42,21)"/>
<path d="M0 0 C1.65 0.33 3.3 0.66 5 1 C4.01 1.495 4.01 1.495 3 2 C2.53348793 4.12576782 2.53348793 4.12576782 2.375 6.5625 C2.30023438 7.38878906 2.22546875 8.21507812 2.1484375 9.06640625 C2.09945313 9.70449219 2.05046875 10.34257813 2 11 C3.15628906 11.39832031 3.15628906 11.39832031 4.3359375 11.8046875 C5.33882812 12.15789063 6.34171875 12.51109375 7.375 12.875 C8.87160156 13.39707031 8.87160156 13.39707031 10.3984375 13.9296875 C13 15 13 15 15 17 C17.59468054 17.61905049 20.12383088 18.12790869 22.75 18.5625 C23.50337646 18.69180908 24.25675293 18.82111816 25.03295898 18.9543457 C32.0012449 20.09924541 38.94442187 20.67573413 46 21 C46 21.33 46 21.66 46 22 C28.30044854 22.5849301 7.98367497 21.21592738 -6 9 C-5.67 8.01 -5.34 7.02 -5 6 C-4.01 7.485 -4.01 7.485 -3 9 C-2.01 6.03 -1.02 3.06 0 0 Z " fill="#92171D" transform="translate(13,31)"/>
<path d="M0 0 C2.64 0 5.28 0 8 0 C8.83679277 2.62394306 9.66956942 5.24904384 10.5 7.875 C10.73847656 8.62136719 10.97695312 9.36773437 11.22265625 10.13671875 C13 15.7734375 13 15.7734375 13 18 C12.34 18 11.68 18 11 18 C10.67 17.34 10.34 16.68 10 16 C8.07361988 15.24756445 8.07361988 15.24756445 6 15 C5.01 15.495 5.01 15.495 4 16 C3.32586789 14.08594633 2.6609668 12.16863974 2 10.25 C1.62875 9.18265625 1.2575 8.1153125 0.875 7.015625 C0 4 0 4 0 0 Z " fill="#8C8C96" transform="translate(125,5)"/>
<path d="M0 0 C1.65 0 3.3 0 5 0 C5.66 1.32 6.32 2.64 7 4 C8.98 4 10.96 4 13 4 C13.33 3.01 13.66 2.02 14 1 C15.32 1.33 16.64 1.66 18 2 C18.31898502 4.95061143 18.4433581 6.44098326 16.5625 8.8125 C12.80160849 10.55535216 9.08331147 10.57903312 5 10 C0.76169024 7.17446016 1.02284652 4.87819112 0 0 Z " fill="#E9E8EA" transform="translate(260,23)"/>
<path d="M0 0 C2.31 0 4.62 0 7 0 C6.39297368 6.6772895 4.22368606 12.70127996 2 19 C1.67 19 1.34 19 1 19 C1 17.35 1 15.7 1 14 C0.01 13.67 -0.98 13.34 -2 13 C-2.66 13.66 -3.32 14.32 -4 15 C-3.32584613 9.7415998 -1.75734451 4.97361654 0 0 Z " fill="#A8A9AC" transform="translate(142,5)"/>
<path d="M0 0 C1.65 0 3.3 0 5 0 C5.3125 3.3125 5.3125 3.3125 5 7 C2.64284143 9.43573052 0.82013432 9.93271344 -2.5234375 10.20703125 C-5.04135724 10.24671193 -7.49310266 10.24140493 -10 10 C-11 9 -11 9 -11.0625 5.9375 C-11.041875 4.968125 -11.02125 3.99875 -11 3 C-7.7 3.33 -4.4 3.66 -1 4 C-0.67 2.68 -0.34 1.36 0 0 Z " fill="#DDDDE0" transform="translate(180,23)"/>
<path d="M0 0 C-0.33 3.3 -0.66 6.6 -1 10 C-0.01 10.33 0.98 10.66 2 11 C-2.62197306 13.21854707 -5.76824163 14.38281159 -11 14 C-11.33 12.68 -11.66 11.36 -12 10 C-11.67 10.66 -11.34 11.32 -11 12 C-10.01 12 -9.02 12 -8 12 C-8 8.7 -8 5.4 -8 2 C-4 0 -4 0 0 0 Z " fill="#249FD8" transform="translate(72,37)"/>
<path d="M0 0 C0.33 0.66 0.66 1.32 1 2 C1.804375 1.979375 2.60875 1.95875 3.4375 1.9375 C6 2 6 2 7 3 C7.09873816 4.99799572 7.12971799 6.99957158 7.125 9 C7.12757813 10.093125 7.13015625 11.18625 7.1328125 12.3125 C7 15 7 15 6 16 C4.02 16 2.04 16 0 16 C0 10.72 0 5.44 0 0 Z " fill="#BCBBC0" transform="translate(193,17)"/>
<path d="M0 0 C2.31 0 4.62 0 7 0 C6.74438677 2.3431213 6.40729228 4.67843403 6 7 C5.01 7.495 5.01 7.495 4 8 C3.34 7.67 2.68 7.34 2 7 C2 9.31 2 11.62 2 14 C3.32 14.33 4.64 14.66 6 15 C6 15.99 6 16.98 6 18 C4.68 18.33 3.36 18.66 2 19 C2.33 20.98 2.66 22.96 3 25 C0.83688562 23.27599535 0.06124927 22.42444206 -0.34057617 19.63989258 C-0.32486572 18.73392334 -0.30915527 17.8279541 -0.29296875 16.89453125 C-0.28330078 15.91162109 -0.27363281 14.92871094 -0.26367188 13.91601562 C-0.23853516 12.89185547 -0.21339844 11.86769531 -0.1875 10.8125 C-0.17396484 9.77673828 -0.16042969 8.74097656 -0.14648438 7.67382812 C-0.11111389 5.11536301 -0.06175544 2.5579422 0 0 Z " fill="#C9C8CD" transform="translate(259,5)"/>
<path d="M0 0 C1.98 0 3.96 0 6 0 C5.67 1.98 5.34 3.96 5 6 C7.97 6 10.94 6 14 6 C15 10 15 10 14 12 C13.01 11.67 12.02 11.34 11 11 C9.10787263 10.77820215 7.21115528 10.59385985 5.3125 10.4375 C4.31863281 10.35371094 3.32476562 10.26992188 2.30078125 10.18359375 C1.54152344 10.12300781 0.78226563 10.06242187 0 10 C0 6.7 0 3.4 0 0 Z " fill="#8C8D92" transform="translate(152,9)"/>
<path d="M0 0 C3.3 0 6.6 0 10 0 C9.67 3.96 9.34 7.92 9 12 C6.125 11.6875 6.125 11.6875 3 11 C0.68593888 7.52890832 0.91380385 6.05121887 1 2 C0.67 1.34 0.34 0.68 0 0 Z " fill="#A3A3A9" transform="translate(191,8)"/>
<path d="M0 0 C0.33 0 0.66 0 1 0 C1 5.61 1 11.22 1 17 C2.65 17 4.3 17 6 17 C6 17.33 6 17.66 6 18 C4.02 18 2.04 18 0 18 C0 16.02 0 14.04 0 12 C-1.65 12 -3.3 12 -5 12 C-5 14.31 -5 16.62 -5 19 C-5.33 19 -5.66 19 -6 19 C-5.67 13.39 -5.34 7.78 -5 2 C-3.35 2 -1.7 2 0 2 C0 1.34 0 0.68 0 0 Z " fill="#B4B3B8" transform="translate(240,10)"/>
<path d="M0 0 C1.32 0 2.64 0 4 0 C4 1.32 4 2.64 4 4 C7.3 4 10.6 4 14 4 C14 4.99 14 5.98 14 7 C13.34 7 12.68 7 12 7 C12 7.66 12 8.32 12 9 C8.37 9 4.74 9 1 9 C-0.4783226 6.04335481 -0.06032783 3.25770263 0 0 Z " fill="#F1F0F2" transform="translate(217,24)"/>
<path d="M0 0 C0.33 0 0.66 0 1 0 C1.02887512 3.64581687 1.04675585 7.29160463 1.0625 10.9375 C1.07087891 11.97841797 1.07925781 13.01933594 1.08789062 14.09179688 C1.09111328 15.08115234 1.09433594 16.07050781 1.09765625 17.08984375 C1.10289307 18.00628662 1.10812988 18.92272949 1.11352539 19.86694336 C1 22 1 22 0 23 C-2.9375 23.1875 -2.9375 23.1875 -6 23 C-8.5654594 20.4345406 -8.54046087 18.52313332 -9 15 C-9.99 14.67 -10.98 14.34 -12 14 C-12 11.69 -12 9.38 -12 7 C-11.01 7 -10.02 7 -9 7 C-8.34 6.01 -7.68 5.02 -7 4 C-6.67 9.28 -6.34 14.56 -6 20 C-4.35 20.33 -2.7 20.66 -1 21 C-0.67 14.07 -0.34 7.14 0 0 Z " fill="#919099" transform="translate(273,5)"/>
<path d="M0 0 C0.99 0.33 1.98 0.66 3 1 C3 1.66 3 2.32 3 3 C3.66 3 4.32 3 5 3 C5 2.34 5 1.68 5 1 C6.32 1 7.64 1 9 1 C9 3.97 9 6.94 9 10 C6.25 10.375 6.25 10.375 3 10 C0.5625 7.25 0.5625 7.25 -1 4 C-0.75 1.625 -0.75 1.625 0 0 Z " fill="#FBFBFB" transform="translate(114,21)"/>
<path d="M0 0 C1.39456452 0.00667256 2.78911118 0.01863093 4.18359375 0.03515625 C4.89451172 0.03966797 5.60542969 0.04417969 6.33789062 0.04882812 C8.09899388 0.06064761 9.86005411 0.07858362 11.62109375 0.09765625 C11.62109375 1.08765625 11.62109375 2.07765625 11.62109375 3.09765625 C7.00109375 3.42765625 2.38109375 3.75765625 -2.37890625 4.09765625 C-2.70890625 11.68765625 -3.03890625 19.27765625 -3.37890625 27.09765625 C-3.70890625 27.09765625 -4.03890625 27.09765625 -4.37890625 27.09765625 C-4.40777162 22.78517016 -4.4256588 18.47270863 -4.44140625 14.16015625 C-4.44978516 12.92845703 -4.45816406 11.69675781 -4.46679688 10.42773438 C-4.47001953 9.25791016 -4.47324219 8.08808594 -4.4765625 6.8828125 C-4.48179932 5.7987915 -4.48703613 4.71477051 -4.49243164 3.59790039 C-4.31756062 -0.25339887 -3.9730618 0.11482838 0 0 Z " fill="#ADABB5" transform="translate(219.37890625,4.90234375)"/>
<path d="M0 0 C2.475 0.495 2.475 0.495 5 1 C5 2.65 5 4.3 5 6 C8.3 6 11.6 6 15 6 C15 6.99 15 7.98 15 9 C10.05 9 5.1 9 0 9 C0 6.03 0 3.06 0 0 Z " fill="#F7F7F7" transform="translate(151,22)"/>
<path d="M0 0 C0.66 0.33 1.32 0.66 2 1 C1.52691406 1.53238281 1.05382813 2.06476562 0.56640625 2.61328125 C-1.34856735 5.53110885 -1.63763001 7.73491572 -2.0625 11.1875 C-2.78315484 16.55304783 -3.75053038 21.73437803 -5 27 C-7 25 -7 25 -7.08203125 22.27734375 C-5.69779337 5.12483091 -5.69779337 5.12483091 0 0 Z " fill="#93939A" transform="translate(7,4)"/>
<path d="M0 0 C0.80824219 0.10183594 1.61648437 0.20367187 2.44921875 0.30859375 C3.06410156 0.39238281 3.67898437 0.47617188 4.3125 0.5625 C4.3125 2.2125 4.3125 3.8625 4.3125 5.5625 C1.20701593 6.52675989 -1.1080305 6.53406073 -4.3125 6.0625 C-7.61818535 5.4905374 -7.61818535 5.4905374 -10.6875 6.5625 C-7.87049873 0.92849747 -6.68403507 -0.87183066 0 0 Z " fill="#C2C2C3" transform="translate(180.6875,4.4375)"/>
<path d="M0 0 C1.37478516 0.01740234 1.37478516 0.01740234 2.77734375 0.03515625 C3.69644531 0.04417969 4.61554688 0.05320312 5.5625 0.0625 C6.27277344 0.07410156 6.98304688 0.08570312 7.71484375 0.09765625 C7.71484375 2.07765625 7.71484375 4.05765625 7.71484375 6.09765625 C4.08484375 6.09765625 0.45484375 6.09765625 -3.28515625 6.09765625 C-3.28515625 0.14039129 -3.28515625 0.14039129 0 0 Z " fill="#92919A" transform="translate(205.28515625,17.90234375)"/>
<path d="M0 0 C1.65 0.33 3.3 0.66 5 1 C5.33 1.99 5.66 2.98 6 4 C6.66 4 7.32 4 8 4 C7.67 2.68 7.34 1.36 7 0 C8.65 0 10.3 0 12 0 C11.01 0.495 11.01 0.495 10 1 C9.53476937 2.89533342 9.53476937 2.89533342 9.375 5.0625 C9.25125 6.361875 9.1275 7.66125 9 9 C8.01 9 7.02 9 6 9 C5.34 8.01 4.68 7.02 4 6 C4 6.99 4 7.98 4 9 C2.35 9 0.7 9 -1 9 C-0.4740625 7.329375 -0.4740625 7.329375 0.0625 5.625 C1.37239331 2.19735524 1.37239331 2.19735524 0 0 Z " fill="#F3EE63" transform="translate(190,41)"/>
<path d="M0 0 C4.46839215 -0.21278058 7.82262526 0.40861915 12 2 C12 3.65 12 5.3 12 7 C9.375 7.8125 9.375 7.8125 6 8 C3.45951165 6.62104124 2.04452619 5.14188458 0 3 C0 2.01 0 1.02 0 0 Z " fill="#1A81B5" transform="translate(42,21)"/>
<path d="M0 0 C5.875 3.75 5.875 3.75 7 6 C7.13415472 8.6723621 7.04318541 11.32250488 7 14 C6.67 13.34 6.34 12.68 6 12 C3.88153715 11.31270746 3.88153715 11.31270746 1.4375 10.875 C0.19806641 10.62363281 0.19806641 10.62363281 -1.06640625 10.3671875 C-1.70449219 10.24601562 -2.34257813 10.12484375 -3 10 C-2.01 9.34 -1.02 8.68 0 8 C0.36297936 6.02252878 0.36297936 6.02252878 0.1875 3.875 C0.125625 2.59625 0.06375 1.3175 0 0 Z " fill="#6AB241" transform="translate(74,16)"/>
<path d="M0 0 C1.65 0.33 3.3 0.66 5 1 C5.33 1.99 5.66 2.98 6 4 C6.66 4 7.32 4 8 4 C7.67 2.68 7.34 1.36 7 0 C8.32 0.33 9.64 0.66 11 1 C10.01 3.64 9.02 6.28 8 9 C5 8 5 8 3 6 C3 6.99 3 7.98 3 9 C1.68 8.67 0.36 8.34 -1 8 C-0.649375 7.05125 -0.29875 6.1025 0.0625 5.125 C1.35026777 2.12939828 1.35026777 2.12939828 0 0 Z " fill="#F3EE63" transform="translate(150,41)"/>
<path d="M0 0 C1.65 0 3.3 0 5 0 C5 0.66 5 1.32 5 2 C5.99 2.33 6.98 2.66 8 3 C6.68 3.33 5.36 3.66 4 4 C3.34 7.3 2.68 10.6 2 14 C1.34 13.67 0.68 13.34 0 13 C-0.99847037 8.37072828 -1.013244 4.61588935 0 0 Z " fill="#C4171E" transform="translate(9,27)"/>
<path d="M0 0 C0.33 0 0.66 0 1 0 C1 7.26 1 14.52 1 22 C0.67 22 0.34 22 0 22 C0 19.69 0 17.38 0 15 C-1.32 15 -2.64 15 -4 15 C-4 12.36 -4 9.72 -4 7 C-2.68 7 -1.36 7 0 7 C0 4.69 0 2.38 0 0 Z " fill="#929298" transform="translate(279,5)"/>
<path d="M0 0 C0.66 0.33 1.32 0.66 2 1 C2 1.66 2 2.32 2 3 C2.928125 3.28875 3.85625 3.5775 4.8125 3.875 C8 5 8 5 11 7 C10.67 7.66 10.34 8.32 10 9 C9.46375 8.835 8.9275 8.67 8.375 8.5 C5.90428964 7.87826438 5.90428964 7.87826438 2.9375 8.125 C0 8 0 8 -1.875 6.5 C-2.24625 6.005 -2.6175 5.51 -3 5 C-2.67 4.01 -2.34 3.02 -2 2 C-1.34 2 -0.68 2 0 2 C0 1.34 0 0.68 0 0 Z " fill="#84858A" transform="translate(174,11)"/>
<path d="M0 0 C1.875 0.1875 1.875 0.1875 4 1 C6.3182255 5.19786779 6.06339928 8.62162769 5.625 13.3125 C5.45871094 15.19388672 5.45871094 15.19388672 5.2890625 17.11328125 C5.19367188 18.06589844 5.09828125 19.01851562 5 20 C4.67 20 4.34 20 4 20 C3.67 16.37 3.34 12.74 3 9 C2.01 8.67 1.02 8.34 0 8 C0 5.36 0 2.72 0 0 Z " fill="#7D7C85" transform="translate(104,12)"/>
<path d="M0 0 C1.13115994 3.81766479 1.88187852 7.151521 0.10546875 10.875 C-0.88443165 12.60994912 -1.9383539 14.30800153 -3 16 C-3.66 16 -4.32 16 -5 16 C-4.3436214 4.3436214 -4.3436214 4.3436214 0 0 Z " fill="#0F83C0" transform="translate(79,31)"/>
<path d="M0 0 C0.99 0.66 1.98 1.32 3 2 C5.6127756 2.60607114 8.17208436 3.12053702 10.8125 3.5625 C11.56136475 3.69180908 12.31022949 3.82111816 13.08178711 3.9543457 C20.03380477 5.10333625 26.95972252 5.67643733 34 6 C34 6.33 34 6.66 34 7 C21.26876696 7.42073842 8.90395075 7.14644487 -3 2 C-2.01 1.34 -1.02 0.68 0 0 Z " fill="#702434" transform="translate(25,46)"/>
<path d="M0 0 C2.475 0.495 2.475 0.495 5 1 C5 3.97 5 6.94 5 10 C3.35 10 1.7 10 0 10 C0 6.7 0 3.4 0 0 Z " fill="#E4E3E4" transform="translate(93,22)"/>
<path d="M0 0 C2.475 0.99 2.475 0.99 5 2 C5.22245393 3.60226955 5.42746669 5.20696767 5.625 6.8125 C5.74101563 7.70582031 5.85703125 8.59914063 5.9765625 9.51953125 C6 12 6 12 4 15 C1.125 15.5625 1.125 15.5625 -2 15 C-4.375 12 -4.375 12 -6 9 C-5.67 8.34 -5.34 7.68 -5 7 C-4.62875 7.804375 -4.2575 8.60875 -3.875 9.4375 C-2.1890663 12.31172896 -2.1890663 12.31172896 1.1875 12.8125 C2.115625 12.874375 3.04375 12.93625 4 13 C4 10.03 4 7.06 4 4 C2.35 4 0.7 4 -1 4 C-0.67 2.68 -0.34 1.36 0 0 Z " fill="#A7A6AD" transform="translate(119,18)"/>
<path d="M0 0 C2.31 0 4.62 0 7 0 C7.625 2.8125 7.625 2.8125 8 6 C7.01 7.485 7.01 7.485 6 9 C5.34 8.34 4.68 7.68 4 7 C1.93125966 6.3574765 1.93125966 6.3574765 0 6 C0 4.02 0 2.04 0 0 Z " fill="#B0B2B2" transform="translate(103,6)"/>
<path d="M0 0 C0.33 0 0.66 0 1 0 C1 1.65 1 3.3 1 5 C3.97 5 6.94 5 10 5 C10.33 6.65 10.66 8.3 11 10 C10.34 9.01 9.68 8.02 9 7 C2.565 7.495 2.565 7.495 -4 8 C-4 6.35 -4 4.7 -4 3 C-2.68 3 -1.36 3 0 3 C0 2.01 0 1.02 0 0 Z " fill="#88898E" transform="translate(221,10)"/>
<path d="M0 0 C0.88935377 3.303314 1.46274105 6.62294375 2 10 C2.66 10 3.32 10 4 10 C4.12375 9.05125 4.2475 8.1025 4.375 7.125 C5 4 5 4 7 2 C5.07289294 12.55808656 5.07289294 12.55808656 3 17 C2.67 17 2.34 17 2 17 C2 15.35 2 13.7 2 12 C1.01 11.67 0.02 11.34 -1 11 C-1.66 11.66 -2.32 12.32 -3 13 C-2.343621 8.51474352 -1.29925791 4.33085971 0 0 Z " fill="#73727F" transform="translate(141,7)"/>
<path d="M0 0 C0.99 0 1.98 0 3 0 C2.67 2.97 2.34 5.94 2 9 C4.31 9 6.62 9 9 9 C6.50494038 11.49505962 5.32671112 11.35948376 1.875 11.625 C0.96492188 11.69976562 0.05484375 11.77453125 -0.8828125 11.8515625 C-1.93082031 11.92503906 -1.93082031 11.92503906 -3 12 C-3.33 10.68 -3.66 9.36 -4 8 C-3.67 8.66 -3.34 9.32 -3 10 C-2.01 10 -1.02 10 0 10 C0 6.7 0 3.4 0 0 Z " fill="#177AB2" transform="translate(64,39)"/>
<path d="M0 0 C2.31 0 4.62 0 7 0 C6.74438677 2.3431213 6.40729228 4.67843403 6 7 C5.01 7.495 5.01 7.495 4 8 C3.34 7.67 2.68 7.34 2 7 C2 9.31 2 11.62 2 14 C3.32 14.33 4.64 14.66 6 15 C5.67 15.66 5.34 16.32 5 17 C3.68 16.34 2.36 15.68 1 15 C1 11.37 1 7.74 1 4 C2.65 3.67 4.3 3.34 6 3 C6 2.34 6 1.68 6 1 C4.02 1 2.04 1 0 1 C0 0.67 0 0.34 0 0 Z " fill="#AEAFB2" transform="translate(259,5)"/>
<path d="M0 0 C0.66 0.33 1.32 0.66 2 1 C1.67 1.66 1.34 2.32 1 3 C2.98 3 4.96 3 7 3 C5.02 3.99 5.02 3.99 3 5 C3 5.66 3 6.32 3 7 C2.01 7.495 2.01 7.495 1 8 C0.34786708 10.02463255 0.34786708 10.02463255 0 12 C-1.5625 10.9375 -1.5625 10.9375 -3 9 C-2.66666667 2.66666667 -2.66666667 2.66666667 0 0 Z " fill="#9FA0A5" transform="translate(171,6)"/>
<path d="M0 0 C2.64 0 5.28 0 8 0 C7.67 1.98 7.34 3.96 7 6 C5.02 6 3.04 6 1 6 C0.67 4.02 0.34 2.04 0 0 Z " fill="#FBFBFB" transform="translate(133,25)"/>
<path d="M0 0 C2.0625 0.4375 2.0625 0.4375 4 1 C3.01 1.33 2.02 1.66 1 2 C0.67 5.63 0.34 9.26 0 13 C1.32 13 2.64 13 4 13 C4 13.99 4 14.98 4 16 C2.68 16 1.36 16 0 16 C0.33 18.97 0.66 21.94 1 25 C0.34 25 -0.32 25 -1 25 C-1.02886984 21.02084841 -1.04675406 17.04172347 -1.0625 13.0625 C-1.07087891 11.92619141 -1.07925781 10.78988281 -1.08789062 9.61914062 C-1.09111328 8.53955078 -1.09433594 7.45996094 -1.09765625 6.34765625 C-1.10289307 5.34742432 -1.10812988 4.34719238 -1.11352539 3.31665039 C-1 1 -1 1 0 0 Z " fill="#C9C8CB" transform="translate(217,8)"/>
<path d="M0 0 C0.86625 0.2784375 0.86625 0.2784375 1.75 0.5625 C4.23144049 1.04500232 5.60988556 0.71703433 8 0 C8.66 0 9.32 0 10 0 C9.75 1.875 9.75 1.875 9 4 C6.06004981 6.02755186 4.72295997 6 1 6 C0.67 4.02 0.34 2.04 0 0 Z " fill="#F3EE63" transform="translate(207,44)"/>
<path d="M0 0 C0.99 0 1.98 0 3 0 C3.14285714 8.57142857 3.14285714 8.57142857 2 12 C0.68 12 -0.64 12 -2 12 C-1.34 8.04 -0.68 4.08 0 0 Z " fill="#E31C1F" transform="translate(58,39)"/>
<path d="M0 0 C1.65 0.33 3.3 0.66 5 1 C5 2.98 5 4.96 5 7 C3.68 7 2.36 7 1 7 C1 7.66 1 8.32 1 9 C0.34 9 -0.32 9 -1 9 C-0.67 6.03 -0.34 3.06 0 0 Z " fill="#EFEFF1" transform="translate(194,24)"/>
<path d="M0 0 C2.96659857 3.55991828 5.381348 7.65222543 7 12 C6.67 12.66 6.34 13.32 6 14 C3.5625 12.875 3.5625 12.875 1 11 C-0.03928559 7.32252792 -0.11194097 3.80599297 0 0 Z " fill="#7E7E86" transform="translate(110,6)"/>
<path d="M0 0 C0.66 0 1.32 0 2 0 C2 3.3 2 6.6 2 10 C0.35 9.67 -1.3 9.34 -3 9 C-3 6.69 -3 4.38 -3 2 C-2.34 2 -1.68 2 -1 2 C-0.67 1.34 -0.34 0.68 0 0 Z " fill="#8D8E93" transform="translate(198,10)"/>
<path d="M0 0 C2.140625 -0.0859375 2.140625 -0.0859375 5.703125 0.1640625 C6.363125 1.1540625 7.023125 2.1440625 7.703125 3.1640625 C0.443125 3.1640625 -6.816875 3.1640625 -14.296875 3.1640625 C-9.79888754 0.1654042 -5.28677556 0.37762683 0 0 Z " fill="#AD464B" transform="translate(35.296875,21.8359375)"/>
<path d="M0 0 C2.96909598 3.27301919 3.34354794 5.38065762 3.1875 9.75 C3.14689453 11.22726563 3.14689453 11.22726563 3.10546875 12.734375 C3.07066406 13.48203125 3.03585937 14.2296875 3 15 C2.67 15 2.34 15 2 15 C2 12.69 2 10.38 2 8 C0.68 8.33 -0.64 8.66 -2 9 C-2.33 7.35 -2.66 5.7 -3 4 C-2.01 4 -1.02 4 0 4 C0 2.68 0 1.36 0 0 Z " fill="#808088" transform="translate(254,9)"/>
<path d="M0 0 C0 3.63 0 7.26 0 11 C-1.32 10.67 -2.64 10.34 -4 10 C-4 7.03 -4 4.06 -4 1 C-1 0 -1 0 0 0 Z " fill="#9E9FA0" transform="translate(98,8)"/>
<path d="M0 0 C2.31 0 4.62 0 7 0 C7 1.98 7 3.96 7 6 C5.35 6 3.7 6 2 6 C2 5.34 2 4.68 2 4 C1.34 4 0.68 4 0 4 C0 2.68 0 1.36 0 0 Z " fill="#B5B5B9" transform="translate(125,5)"/>
<path d="M0 0 C1.32 0.33 2.64 0.66 4 1 C4 3.97 4 6.94 4 10 C2.68 10 1.36 10 0 10 C0 6.7 0 3.4 0 0 Z " fill="#E5E4E4" transform="translate(103,21)"/>
<path d="M0 0 C1.75070517 0.11470137 3.50057536 0.24219028 5.25 0.375 C6.22453125 0.44460937 7.1990625 0.51421875 8.203125 0.5859375 C10.93170364 0.98988909 12.62805515 1.65044517 15 3 C16.66140763 3.67966676 18.32700041 4.34938905 20 5 C16.44043328 6.24794222 14.14011495 5.73448579 10.5625 4.6875 C9.63566406 4.42324219 8.70882812 4.15898437 7.75390625 3.88671875 C5.1123764 3.03618361 2.5617976 2.06470354 0 1 C0 0.67 0 0.34 0 0 Z " fill="#45B263" transform="translate(60,23)"/>
<path d="M0 0 C1.65 0 3.3 0 5 0 C5 0.99 5 1.98 5 3 C3.68 3 2.36 3 1 3 C1 4.65 1 6.3 1 8 C2.65 8.33 4.3 8.66 6 9 C6 9.66 6 10.32 6 11 C3.69 11 1.38 11 -1 11 C-0.67 7.37 -0.34 3.74 0 0 Z " fill="#D0CFD3" transform="translate(235,22)"/>
<path d="M0 0 C5.67355671 0.61726196 11.33861055 1.27945952 17 2 C17 3.65 17 5.3 17 7 C16.67 5.68 16.34 4.36 16 3 C14.5459375 3.3403125 14.5459375 3.3403125 13.0625 3.6875 C8.29599832 4.41028919 4.37724145 2.75685201 0 1 C0 0.67 0 0.34 0 0 Z " fill="#E04A52" transform="translate(31,36)"/>
<path d="M0 0 C1.32 0.66 2.64 1.32 4 2 C4 3.65 4 5.3 4 7 C3.01 7 2.02 7 1 7 C1 8.32 1 9.64 1 11 C0.34 11 -0.32 11 -1 11 C-1.99 9.02 -2.98 7.04 -4 5 C-2.02 4.34 -0.04 3.68 2 3 C1.34 2.67 0.68 2.34 0 2 C0 1.34 0 0.68 0 0 Z " fill="#9C9CA3" transform="translate(250,6)"/>
<path d="M0 0 C0.80824219 0.11085938 1.61648437 0.22171875 2.44921875 0.3359375 C3.37154297 0.47902344 3.37154297 0.47902344 4.3125 0.625 C4.3125 2.275 4.3125 3.925 4.3125 5.625 C2.9925 5.955 1.6725 6.285 0.3125 6.625 C0.3125 3.625 0.3125 3.625 1.3125 2.625 C-1.6575 2.295 -4.6275 1.965 -7.6875 1.625 C-4.33422361 -0.61051759 -3.78006343 -0.54783528 0 0 Z " fill="#9C9BA4" transform="translate(180.6875,4.375)"/>
<path d="M0 0 C1.98 0 3.96 0 6 0 C5.01 0.495 5.01 0.495 4 1 C4 3.64 4 6.28 4 9 C2.35 9 0.7 9 -1 9 C-0.67 6.03 -0.34 3.06 0 0 Z " fill="#F3EE63" transform="translate(221,41)"/>
<path d="M0 0 C0.66 0.33 1.32 0.66 2 1 C1.88570603 2.77155654 1.75816963 4.54226229 1.625 6.3125 C1.52058594 7.79169922 1.52058594 7.79169922 1.4140625 9.30078125 C1 12 1 12 -1 15 C-1.97798721 11.20431539 -1.92653069 8.4994001 -1.0625 4.6875 C-0.86785156 3.80449219 -0.67320312 2.92148437 -0.47265625 2.01171875 C-0.31667969 1.34785156 -0.16070312 0.68398438 0 0 Z " fill="#DADBDC" transform="translate(4,17)"/>
<path d="M0 0 C0.99 0.99 1.98 1.98 3 3 C2.34 3 1.68 3 1 3 C1 6.96 1 10.92 1 15 C0.01 14.67 -0.98 14.34 -2 14 C-1.03644647 4.58997722 -1.03644647 4.58997722 0 0 Z " fill="#BCBDBE" transform="translate(6,19)"/>
<path d="M0 0 C0.33 0 0.66 0 1 0 C1 2.97 1 5.94 1 9 C-0.65 8.67 -2.3 8.34 -4 8 C-4 6.02 -4 4.04 -4 2 C-2.68 2 -1.36 2 0 2 C0 1.34 0 0.68 0 0 Z " fill="#919296" transform="translate(240,10)"/>
<path d="M0 0 C0.33 0 0.66 0 1 0 C1.14285714 7.42857143 1.14285714 7.42857143 0 11 C-1.65 10.67 -3.3 10.34 -5 10 C-5 8.68 -5 7.36 -5 6 C-4.01 7.485 -4.01 7.485 -3 9 C-2.01 6.03 -1.02 3.06 0 0 Z " fill="#AD1921" transform="translate(13,31)"/>
<path d="M0 0 C1.32 0 2.64 0 4 0 C4.042721 1.66611905 4.04063832 3.33382885 4 5 C3 6 3 6 0.4375 6.0625 C-0.7690625 6.0315625 -0.7690625 6.0315625 -2 6 C-1.125 1.125 -1.125 1.125 0 0 Z " fill="#F3EE63" transform="translate(202,44)"/>
<path d="M0 0 C3.15330554 0.60694155 5.18888867 1.6416665 7.75 3.5625 C8.67039062 4.24505859 8.67039062 4.24505859 9.609375 4.94140625 C10.29773438 5.46541016 10.29773438 5.46541016 11 6 C10.67 6.99 10.34 7.98 10 9 C10 8.34 10 7.68 10 7 C9.01 7 8.02 7 7 7 C6.67 8.32 6.34 9.64 6 11 C6.185625 9.9171875 6.185625 9.9171875 6.375 8.8125 C5.93923502 5.54426269 5.46299662 5.233117 3 3.25 C2.01 2.5075 1.02 1.765 0 1 C0 0.67 0 0.34 0 0 Z " fill="#CB1F29" transform="translate(51,32)"/>
<path d="M0 0 C0.99 0.33 1.98 0.66 3 1 C3 1.66 3 2.32 3 3 C3.66 3 4.32 3 5 3 C5 2.34 5 1.68 5 1 C6.32 1 7.64 1 9 1 C8.67 1.99 8.34 2.98 8 4 C5.36 4.33 2.72 4.66 0 5 C-0.5625 3.0625 -0.5625 3.0625 -1 1 C-0.67 0.67 -0.34 0.34 0 0 Z " fill="#DAD9D9" transform="translate(114,21)"/>
<path d="M0 0 C2.97 0.33 5.94 0.66 9 1 C9 2.65 9 4.3 9 6 C5.06326356 4.68775452 2.77280706 3.08089673 0 0 Z " fill="#0370B5" transform="translate(45,22)"/>
<path d="M0 0 C0.33 0.66 0.66 1.32 1 2 C2.32 2 3.64 2 5 2 C5 4.97 5 7.94 5 11 C4.34 9.68 3.68 8.36 3 7 C2.01 6.67 1.02 6.34 0 6 C0 4.02 0 2.04 0 0 Z " fill="#CAC8CA" transform="translate(274,18)"/>
<path d="M0 0 C1.96301592 3.50538557 2.95902388 7.13351728 4 11 C3.34 11 2.68 11 2 11 C1.67 10.34 1.34 9.68 1 9 C-1.02463255 8.34786708 -1.02463255 8.34786708 -3 8 C-2.5359375 7.13375 -2.5359375 7.13375 -2.0625 6.25 C-1.07416636 4.15705816 -0.4831387 2.25464725 0 0 Z " fill="#7C7C84" transform="translate(134,12)"/>
<path d="M0 0 C-0.33 1.32 -0.66 2.64 -1 4 C-1 3.34 -1 2.68 -1 2 C-5.29 2 -9.58 2 -14 2 C-14 1.67 -14 1.34 -14 1 C-4.58997722 -1.48063781 -4.58997722 -1.48063781 0 0 Z " fill="#9B9D9E" transform="translate(231,17)"/>
<path d="M0 0 C0.66 0 1.32 0 2 0 C2.66 0.66 3.32 1.32 4 2 C4.99 2.66 5.98 3.32 7 4 C7 4.66 7 5.32 7 6 C5 7.625 5 7.625 3 9 C2.01 6.03 1.02 3.06 0 0 Z " fill="#A8A8AC" transform="translate(109,15)"/>
<path d="M0 0 C0.66 0.33 1.32 0.66 2 1 C-3.94 4.465 -3.94 4.465 -10 8 C-10.66 7.34 -11.32 6.68 -12 6 C-10.04669132 4.96958487 -8.08718472 3.9509107 -6.125 2.9375 C-5.03445312 2.36902344 -3.94390625 1.80054688 -2.8203125 1.21484375 C-1.42425781 0.61349609 -1.42425781 0.61349609 0 0 Z " fill="#D5D4D7" transform="translate(52,11)"/>
<path d="M0 0 C0.66 0.33 1.32 0.66 2 1 C1.2884375 1.804375 1.2884375 1.804375 0.5625 2.625 C-1.28186076 5.42842836 -1.62456847 7.69620258 -2 11 C-2.99 10.67 -3.98 10.34 -5 10 C-4.56802365 5.2482602 -3.67230705 3.07999946 0 0 Z " fill="#82838A" transform="translate(7,4)"/>
<path d="M0 0 C0.33 0 0.66 0 1 0 C0.67 3.63 0.34 7.26 0 11 C-0.99 11 -1.98 11 -3 11 C-2.53199289 6.94393835 -2.12046792 3.53411321 0 0 Z " fill="#D21921" transform="translate(50,40)"/>
<path d="M0 0 C2.32590854 3.63423209 2.16265833 6.77088331 2 11 C1.01 11 0.02 11 -1 11 C-1.125 3.375 -1.125 3.375 0 0 Z " fill="#1998D4" transform="translate(62,38)"/>
<path d="M0 0 C1.32 0 2.64 0 4 0 C4 0.66 4 1.32 4 2 C3.01 2.495 3.01 2.495 2 3 C1.16374091 5.31345827 1.16374091 5.31345827 0.5 8 C-0.21875 10.75 -0.21875 10.75 -1 13 C-1.99 13.495 -1.99 13.495 -3 14 C-3.25 8.375 -3.25 8.375 -1 5 C-0.61500109 3.34450469 -0.27206865 1.6777567 0 0 Z " fill="#DE2C34" transform="translate(48,38)"/>
<path d="M0 0 C1.90608098 3.21182149 2.22266247 5.53882603 2.125 9.25 C2.10695313 10.14203125 2.08890625 11.0340625 2.0703125 11.953125 C2.04710937 12.62859375 2.02390625 13.3040625 2 14 C1.34 13.67 0.68 13.34 0 13 C-0.99847037 8.37072828 -1.013244 4.61588935 0 0 Z " fill="#CD242B" transform="translate(9,27)"/>
<path d="M0 0 C2.64 0 5.28 0 8 0 C6.35 1.65 4.7 3.3 3 5 C1.68 4.34 0.36 3.68 -1 3 C-0.67 2.01 -0.34 1.02 0 0 Z " fill="#9D1216" transform="translate(15,26)"/>
<path d="M0 0 C1.32 0.33 2.64 0.66 4 1 C4 2.98 4 4.96 4 7 C3.67 6.01 3.34 5.02 3 4 C2.05125 4.515625 1.1025 5.03125 0.125 5.5625 C-0.90625 6.036875 -1.9375 6.51125 -3 7 C-3.66 6.67 -4.32 6.34 -5 6 C-4.360625 5.7525 -3.72125 5.505 -3.0625 5.25 C-0.81258459 4.18437567 -0.81258459 4.18437567 -0.25 1.875 C-0.1675 1.25625 -0.085 0.6375 0 0 Z " fill="#C0BFC2" transform="translate(251,20)"/>
<path d="M0 0 C0 1.32 0 2.64 0 4 C-2.97 3.67 -5.94 3.34 -9 3 C-9 2.34 -9 1.68 -9 1 C-5.846632 0.29925156 -3.27275026 0 0 0 Z " fill="#C6C6C6" transform="translate(212,20)"/>
<path d="M0 0 C0.66 0.33 1.32 0.66 2 1 C0.63016497 4.16115776 0.0109362 4.9927092 -3 7 C-4.32 7 -5.64 7 -7 7 C-7 6.01 -7 5.02 -7 4 C-1.7265625 0.77734375 -1.7265625 0.77734375 0 0 Z " fill="#36A55F" transform="translate(49,14)"/>
<path d="M0 0 C0.33 0.66 0.66 1.32 1 2 C3.52733235 2.65555119 3.52733235 2.65555119 6 3 C6 3.66 6 4.32 6 5 C4.68 5 3.36 5 2 5 C1.67 6.32 1.34 7.64 1 9 C0.67 6.03 0.34 3.06 0 0 Z " fill="#B9B8BC" transform="translate(130,18)"/>
<path d="M0 0 C0.33 1.32 0.66 2.64 1 4 C1.66 4 2.32 4 3 4 C3 6.64 3 9.28 3 12 C2.67 12 2.34 12 2 12 C2 10.35 2 8.7 2 7 C0.68 7 -0.64 7 -2 7 C-1.34 4.69 -0.68 2.38 0 0 Z " fill="#B0B0B2" transform="translate(140,15)"/>
<path d="M0 0 C2.31 0 4.62 0 7 0 C7 0.99 7 1.98 7 3 C5.02 3 3.04 3 1 3 C0.67 3.99 0.34 4.98 0 6 C0 4.02 0 2.04 0 0 Z " fill="#C7C7C9" transform="translate(103,6)"/>
<path d="M0 0 C0.99 0.66 1.98 1.32 3 2 C3.40843923 4.71203652 3.13336867 7.2437142 3 10 C4.65 10 6.3 10 8 10 C8 10.33 8 10.66 8 11 C6.02 11 4.04 11 2 11 C2 8.36 2 5.72 2 3 C0.68 3 -0.64 3 -2 3 C-2 2.34 -2 1.68 -2 1 C-1.34 0.67 -0.68 0.34 0 0 Z " fill="#A5A5AB" transform="translate(238,17)"/>
<path d="M0 0 C1.32 0 2.64 0 4 0 C4 1.65 4 3.3 4 5 C2.68 5 1.36 5 0 5 C0 3.35 0 1.7 0 0 Z " fill="#FEFEFE" transform="translate(93,26)"/>
<path d="M0 0 C1.98 0 3.96 0 6 0 C6 0.66 6 1.32 6 2 C7.65 2.33 9.3 2.66 11 3 C6.99799622 4.60080151 3.95443764 3.29279692 0 2 C0 1.34 0 0.68 0 0 Z " fill="#329E75" transform="translate(54,22)"/>
<path d="M0 0 C0.33 0 0.66 0 1 0 C1.1875 3.375 1.1875 3.375 1 7 C0.01 7.66 -0.98 8.32 -2 9 C-2.33 7.35 -2.66 5.7 -3 4 C-2.01 4 -1.02 4 0 4 C0 2.68 0 1.36 0 0 Z " fill="#8B8C91" transform="translate(133,9)"/>
<path d="M0 0 C0 0.99 0 1.98 0 3 C-2.31 3 -4.62 3 -7 3 C-7 2.34 -7 1.68 -7 1 C-4.53721199 -0.231394 -2.7204945 -0.07159196 0 0 Z " fill="#CBD0D1" transform="translate(24,21)"/>
<path d="M0 0 C2.02434654 0.51952256 4.02413655 1.13238987 6.01953125 1.75390625 C5.68953125 2.41390625 5.35953125 3.07390625 5.01953125 3.75390625 C4.48328125 3.58890625 3.94703125 3.42390625 3.39453125 3.25390625 C0.56067116 2.65730413 -2.09244935 2.68826945 -4.98046875 2.75390625 C-3.57594973 0.47156284 -2.72095665 -0.33810704 0 0 Z " fill="#909295" transform="translate(178.98046875,16.24609375)"/>
<path d="M0 0 C0 3 0 3 -1 5 C-2.32 5 -3.64 5 -5 5 C-4.67 3.68 -4.34 2.36 -4 1 C-2.68 0.67 -1.36 0.34 0 0 Z " fill="#ACADAE" transform="translate(222,8)"/>
<path d="M0 0 C0.66 0 1.32 0 2 0 C1.67 2.64 1.34 5.28 1 8 C0.34 8 -0.32 8 -1 8 C-1.125 2.25 -1.125 2.25 0 0 Z " fill="#DB2929" transform="translate(59,43)"/>
<path d="M0 0 C0.91058531 3.07322544 1.08886184 5.80097361 1 9 C0.01 9.495 0.01 9.495 -1 10 C-1.66 7.69 -2.32 5.38 -3 3 C-2.01 2.01 -1.02 1.02 0 0 Z " fill="#127DAD" transform="translate(79,31)"/>
<path d="M0 0 C1.32 0.33 2.64 0.66 4 1 C3.34 1 2.68 1 2 1 C2.309375 2.1446875 2.309375 2.1446875 2.625 3.3125 C3 6 3 6 1 9 C0.67 6.03 0.34 3.06 0 0 Z " fill="#9F9FA5" transform="translate(128,12)"/>
<path d="M0 0 C2.97 0.33 5.94 0.66 9 1 C8.67 1.66 8.34 2.32 8 3 C5.6568787 2.74438677 3.32156597 2.40729228 1 2 C0.67 1.34 0.34 0.68 0 0 Z " fill="#CF4C54" transform="translate(31,36)"/>
<path d="M0 0 C0 1.98 0 3.96 0 6 C-1.32 5.67 -2.64 5.34 -4 5 C-3.625 3.0625 -3.625 3.0625 -3 1 C-1 0 -1 0 0 0 Z " fill="#FEFEFE" transform="translate(107,25)"/>
<path d="M0 0 C0.66 0.33 1.32 0.66 2 1 C1.01 2.485 1.01 2.485 0 4 C-1.32 4 -2.64 4 -4 4 C-4.33 4.66 -4.66 5.32 -5 6 C-5.66 5.34 -6.32 4.68 -7 4 C-1.7265625 0.77734375 -1.7265625 0.77734375 0 0 Z " fill="#36A360" transform="translate(58,9)"/>
<path d="M0 0 C2.64 0 5.28 0 8 0 C6.625 2 6.625 2 5 4 C4.34 4 3.68 4 3 4 C3 3.01 3 2.02 3 1 C2.01 0.67 1.02 0.34 0 0 Z " fill="#CDCDCF" transform="translate(175,6)"/>
<path d="M0 0 C0.99 0.33 1.98 0.66 3 1 C2.01 1.33 1.02 1.66 0 2 C0 1.34 0 0.68 0 0 Z " fill="#F3EE63" transform="translate(129,41)"/>
</svg>
