<svg width="191" height="50" viewBox="0 0 191 50" fill="none" xmlns="http://www.w3.org/2000/svg">
<path fill-rule="evenodd" clip-rule="evenodd" d="M47.7492 29.8229C47.7492 40.8357 38.7461 49.8389 27.7333 49.8389C20.9809 49.8389 15.0323 46.4627 11.415 41.318C11.3346 41.2376 11.3346 41.1572 11.2542 41.0768C9.08382 37.8614 7.79761 34.0029 7.79761 29.8229C7.79761 27.8936 8.11915 25.9643 8.60146 24.1959C8.70864 23.8743 8.81575 23.5796 8.92293 23.3116C8.97652 23.0973 9.03027 22.8829 9.08386 22.6685C9.24463 22.4006 9.3786 22.1326 9.48578 21.8647C12.5404 14.7907 19.6143 9.88721 27.7333 9.88721C29.5018 9.88721 31.2702 10.1284 32.8779 10.6107C32.9583 10.6107 32.9582 10.6107 33.0386 10.6107C33.5209 10.6911 33.923 10.8518 34.4053 11.0126C34.4589 11.0126 34.5125 11.0394 34.5661 11.093C37.2188 12.0576 39.6304 13.5849 41.64 15.5142C42.6583 16.4788 43.5423 17.5506 44.2926 18.7296C45.8199 20.9804 46.865 23.4724 47.3473 26.2859C47.5081 26.9825 47.6154 27.706 47.669 28.4563C47.7226 28.885 47.7492 29.3405 47.7492 29.8229ZM38.103 29.8229C38.103 24.1155 33.4407 19.5335 27.7333 19.5335C22.0259 19.5335 17.4439 24.1155 17.4439 29.8229C17.4439 35.5302 22.0259 40.1926 27.7333 40.1926C33.4407 40.1926 38.103 35.5302 38.103 29.8229Z" fill="#D1D1D1"/>
<g style="mix-blend-mode:multiply">
<path d="M35.129 22.5888L41.6403 15.5149C39.6307 13.5856 37.2191 12.0583 34.5664 11.0936C34.5128 11.0401 34.4592 11.0133 34.4056 11.0133C33.9233 10.8525 33.5212 10.6917 33.0389 10.6113C32.9585 10.6113 32.9586 10.6113 32.8782 10.6113L30.0647 19.7753C31.994 20.2576 33.7625 21.2223 35.129 22.5888Z" fill="#415E85"/>
</g>
<path d="M34.5657 22.1065L45.1765 10.531C42.6042 8.19982 39.5496 6.43134 36.1734 5.30594C35.9322 5.14517 35.4498 5.06476 35.4498 4.98438L34.8871 6.83326L34.3245 8.68212L30.7876 20.0165C32.2345 20.4184 33.5207 21.1419 34.5657 22.1065Z" fill="#6DB79D"/>
<g style="mix-blend-mode:multiply">
<path d="M17.4437 29.8222C17.4437 28.2145 17.7652 26.6872 18.4083 25.401L9.48558 21.864L7.47594 21.0601L7.31501 20.9798L5.7073 20.3367L3.85858 19.6936L3.135 19.3721L2.8938 20.0955L3.61739 20.3367C3.537 20.5778 3.37611 20.819 3.29573 21.0601V21.1405L5.06437 21.7836L6.91308 22.5071L8.92272 23.311C8.81554 23.5789 8.70844 23.8737 8.60126 24.1952C8.11894 25.9637 7.7974 27.8929 7.7974 29.8222C7.7974 30.7868 7.87783 31.7514 8.0386 32.7161C8.09219 33.1448 8.14574 33.5735 8.19933 34.0022C8.19933 34.0558 8.2262 34.1094 8.27979 34.163C8.38697 34.5917 8.49408 35.0205 8.60126 35.4492C8.70844 35.8243 8.81554 36.1727 8.92272 36.4942C8.97631 36.6014 9.03006 36.7354 9.08365 36.8961C9.24442 37.2713 9.40508 37.6464 9.56585 38.0215C9.72662 38.3967 9.88747 38.745 10.0482 39.0666C10.1018 39.1737 10.1554 39.2809 10.209 39.3881C10.4233 39.7096 10.6377 40.058 10.8521 40.4331C10.9593 40.6475 11.0933 40.8618 11.254 41.0762L19.4533 35.9315C18.1671 34.2434 17.4437 32.1534 17.4437 29.8222Z" fill="#2C394B"/>
</g>
<path d="M17.4442 29.8229C17.4442 28.5368 17.6853 27.2506 18.1676 26.0448L9.16448 22.5882L7.15484 21.7844L5.3864 21.0609L3.61795 20.3374C3.53757 20.5786 3.37668 20.8197 3.29629 21.0609C3.29629 21.1145 3.29629 21.1413 3.29629 21.1413C3.2427 21.2484 3.21602 21.3556 3.21602 21.4628C3.13564 21.5432 3.05529 21.704 3.05529 21.8647C2.94811 22.1863 2.84081 22.5346 2.73363 22.9098C2.62645 23.2313 2.51935 23.6064 2.41217 24.0351C2.35858 24.3031 2.30503 24.5711 2.25144 24.839C2.19784 25.0534 2.17097 25.2945 2.17097 25.5625C1.84943 26.929 1.76904 28.376 1.76904 29.8229C1.76904 34.8872 3.21591 39.63 5.70786 43.6492L7.39604 42.6042L9.00375 41.5592L10.8527 40.4338L18.9715 35.2891C18.0069 33.7618 17.4442 31.8326 17.4442 29.8229Z" fill="#065036"/>
<g style="mix-blend-mode:multiply">
<path d="M27.733 19.5336C29.0996 19.5336 30.3857 19.7748 31.5111 20.2571L36.1735 5.30538C35.9324 5.1446 35.4499 5.0642 35.4499 4.98381L36.5755 1.36646C36.1735 1.20569 35.8519 1.12531 35.4499 1.04492C34.6461 2.65263 33.7618 5.54651 33.0384 10.6108C32.958 10.6108 29.5015 9.88734 27.733 9.88734C19.6141 9.88734 12.5402 14.7909 9.48554 21.8648L7.4759 21.0609L7.31498 20.9806L5.70726 20.3375L3.85855 19.614L0.321464 18.2474C0.214283 18.4618 0.107181 18.703 0 18.9709L2.89377 20.0963L3.61735 20.3375C3.53697 20.5786 3.37608 20.8198 3.29569 21.0609L5.06433 21.7844L6.91305 22.5079L8.92269 23.3118L17.8456 26.7683C19.2121 22.5883 23.1511 19.5336 27.733 19.5336Z" fill="#E71B3C"/>
</g>
<path d="M27.733 19.5337C28.8049 19.5337 29.8231 19.6945 30.7877 20.016L34.3246 8.68164L34.8873 6.83278L35.4499 4.98389L36.5755 1.36654C36.1735 1.20577 35.8519 1.12539 35.4499 1.045C32.958 0.321533 30.3858 0 27.733 0C15.836 0 4.90345 7.31508 0.321464 18.2475C0.214283 18.4619 0.107181 18.7031 0 18.971L2.89377 20.0964L3.61735 20.3376L5.3858 21.061L7.15424 21.7845L9.16388 22.5884L18.167 26.0449C19.614 22.2668 23.3922 19.5337 27.733 19.5337Z" fill="#139467"/>
<g style="mix-blend-mode:multiply">
<path fill-rule="evenodd" clip-rule="evenodd" d="M40.4338 29.8237C40.4338 36.8172 34.7264 42.5246 27.7328 42.5246C20.7393 42.5246 15.1123 36.8172 15.1123 29.8237C15.1123 22.8301 20.7393 17.2031 27.7328 17.2031C34.7264 17.2031 40.4338 22.8301 40.4338 29.8237ZM38.1025 29.8237C38.1025 24.1163 33.4402 19.5343 27.7328 19.5343C22.0254 19.5343 17.4434 24.1163 17.4434 29.8237C17.4434 35.5311 22.0254 40.1934 27.7328 40.1934C33.4402 40.1934 38.1025 35.5311 38.1025 29.8237Z" fill="#4F4F4F"/>
</g>
<path d="M59.8641 24.7573V7.8063H63.6602V24.7573H59.8641ZM66.6415 24.7573V12.82H70.2466V14.0376C70.931 13.0508 72.0372 12.5574 73.5652 12.5574C75.0136 12.5574 76.1436 13.0428 76.9554 14.0137C77.783 14.9846 78.1969 16.2659 78.1969 17.8575V24.7573H74.5918V18.4783C74.5918 16.7116 73.9472 15.8282 72.6579 15.8282C71.9417 15.8282 71.3607 16.0908 70.9151 16.6161C70.4694 17.1413 70.2466 17.9212 70.2466 18.9558V24.7573H66.6415ZM84.355 24.7573L79.1265 12.82H83.1135L86.0024 20.0779L88.9151 12.82H92.926L87.6975 24.7573H84.355ZM99.5774 25.0199C97.7311 25.0199 96.211 24.431 95.0173 23.2532C93.8395 22.0754 93.2506 20.5793 93.2506 18.7648C93.2506 16.9821 93.8474 15.5019 95.0412 14.3241C96.2508 13.1463 97.7629 12.5574 99.5774 12.5574C100.453 12.5574 101.272 12.7086 102.036 13.011C102.816 13.3134 103.501 13.7511 104.09 14.3241C104.695 14.8971 105.164 15.6372 105.498 16.5444C105.833 17.4517 105.984 18.4783 105.952 19.6243H96.7602C96.8238 20.2768 97.1103 20.826 97.6196 21.2716C98.129 21.7014 98.8452 21.9162 99.7684 21.9162C100.294 21.9162 100.771 21.8128 101.201 21.6059C101.631 21.383 101.917 21.1125 102.06 20.7941H105.833C105.451 22.0515 104.687 23.0702 103.541 23.8501C102.395 24.63 101.074 25.0199 99.5774 25.0199ZM99.4819 15.4223C98.7975 15.4223 98.2245 15.5974 97.7629 15.9476C97.3172 16.2977 97.0148 16.7593 96.8557 17.3323H101.965C101.79 16.6797 101.463 16.2022 100.986 15.8998C100.524 15.5815 100.023 15.4223 99.4819 15.4223ZM113.012 25.0199C111.42 25.0199 110.107 24.63 109.072 23.8501C108.054 23.0543 107.513 22.0595 107.449 20.8658H111.245C111.277 21.3273 111.468 21.6854 111.818 21.9401C112.168 22.1789 112.606 22.2982 113.131 22.2982C114.022 22.2982 114.468 22.0436 114.468 21.5342C114.468 21.2796 114.365 21.0886 114.158 20.9613C113.967 20.818 113.617 20.6748 113.107 20.5315L110.696 19.9108C108.69 19.3855 107.688 18.1361 107.688 16.1624C107.688 15.096 108.133 14.2286 109.025 13.5601C109.916 12.8916 111.134 12.5574 112.677 12.5574C114.046 12.5574 115.184 12.8996 116.092 13.584C117.015 14.2525 117.524 15.1995 117.62 16.4251H113.991C113.847 15.6929 113.386 15.3268 112.606 15.3268C111.794 15.3268 111.388 15.5815 111.388 16.0908C111.388 16.5365 111.794 16.8468 112.606 17.0219L114.778 17.5949C115.972 17.9133 116.832 18.3748 117.357 18.9797C117.882 19.5845 118.145 20.3723 118.145 21.3432C118.145 22.4415 117.667 23.3328 116.712 24.0172C115.757 24.6857 114.524 25.0199 113.012 25.0199ZM126.144 24.9006C124.744 24.9006 123.59 24.5186 122.683 23.7546C121.791 22.9747 121.346 21.8526 121.346 20.3883V15.9476H118.958V12.82H121.346V9.50141H124.951V12.82H128.293V15.9476H124.951V19.6481C124.951 20.3644 125.11 20.8817 125.428 21.2C125.747 21.5183 126.264 21.6775 126.98 21.6775C127.521 21.6775 127.959 21.6059 128.293 21.4626V24.6618C127.768 24.821 127.052 24.9006 126.144 24.9006ZM130.404 19.7914V16.3534H137.424V19.7914H130.404ZM140.534 24.7573V7.8063H151.278V11.4353H144.33V14.4673H149.845V18.0963H144.33V21.1284H151.278V24.7573H140.534ZM158.29 25.0199C156.746 25.0199 155.433 24.4072 154.35 23.1816C153.284 21.956 152.751 20.4917 152.751 18.7887C152.751 17.0856 153.284 15.6213 154.35 14.3957C155.433 13.1701 156.746 12.5574 158.29 12.5574C159.658 12.5574 160.741 13.0428 161.537 14.0137V6.85132H165.142V24.7573H161.537V23.5636C160.741 24.5345 159.658 25.0199 158.29 25.0199ZM157.12 20.9135C157.629 21.4706 158.29 21.7491 159.101 21.7491C159.913 21.7491 160.566 21.4706 161.059 20.9135C161.568 20.3564 161.823 19.6481 161.823 18.7887C161.823 17.9292 161.568 17.2209 161.059 16.6638C160.566 16.1067 159.913 15.8282 159.101 15.8282C158.29 15.8282 157.629 16.1067 157.12 16.6638C156.626 17.2209 156.38 17.9292 156.38 18.7887C156.38 19.6481 156.626 20.3564 157.12 20.9135ZM172.478 25.0199C171.03 25.0199 169.915 24.5345 169.135 23.5636C168.356 22.5927 167.966 21.2796 167.966 19.6243V12.82H171.571V19.0035C171.571 20.8339 172.183 21.7491 173.409 21.7491C174.905 21.7491 175.653 20.7066 175.653 18.6215V12.82H179.258V24.7573H175.653V23.5397C174.969 24.5265 173.91 25.0199 172.478 25.0199Z" fill="#056040"/>
<path d="M59.044 42.0815V34.7514H60.0041V42.0815H59.044ZM61.7933 42.0815V36.9195H62.6811V37.7144C63.0322 37.1156 63.5793 36.8162 64.3227 36.8162C64.9077 36.8162 65.3792 37.0055 65.7371 37.384C66.095 37.7626 66.274 38.2685 66.274 38.9017V42.0815H65.3964V39.0359C65.3964 38.6023 65.2863 38.2616 65.066 38.0138C64.8458 37.7592 64.5498 37.6318 64.1781 37.6318C63.7514 37.6318 63.3935 37.8004 63.1044 38.1377C62.8222 38.475 62.6811 38.9361 62.6811 39.5211V42.0815H61.7933ZM69.3725 42.0815L66.9876 36.9195H67.9787L69.7442 40.8323L71.5096 36.9195H72.5007L70.1158 42.0815H69.3725ZM75.486 42.1848C74.7358 42.1848 74.1129 41.9301 73.6174 41.4208C73.1287 40.9115 72.8843 40.2714 72.8843 39.5005C72.8843 38.7227 73.1218 38.0826 73.5967 37.5802C74.0785 37.0709 74.7152 36.8162 75.5067 36.8162C76.3051 36.8162 76.9314 37.0984 77.3857 37.6628C77.8399 38.2272 78.0395 38.9189 77.9845 39.738H73.7825C73.7963 40.206 73.9684 40.5983 74.2987 40.9149C74.6291 41.2246 75.0283 41.3795 75.4964 41.3795C76.1984 41.3795 76.6974 41.0904 76.9934 40.5123H77.9019C77.7711 40.9941 77.4924 41.3933 77.0656 41.7099C76.6389 42.0265 76.1124 42.1848 75.486 42.1848ZM76.4978 37.9725C76.2156 37.7247 75.8749 37.6008 75.4757 37.6008C75.0765 37.6008 74.7186 37.7213 74.402 37.9622C74.0923 38.2031 73.8995 38.561 73.8238 39.0359H77.045C76.9624 38.5679 76.78 38.2134 76.4978 37.9725ZM80.9279 42.1848C80.3498 42.1848 79.8645 42.0437 79.4722 41.7615C79.0868 41.4793 78.8734 41.087 78.8321 40.5845H79.7406C79.7957 40.8736 79.9334 41.087 80.1536 41.2246C80.3807 41.3623 80.6423 41.4311 80.9382 41.4311C81.2342 41.4311 81.4717 41.3726 81.6506 41.2556C81.8364 41.1386 81.9294 40.97 81.9294 40.7497C81.9294 40.5432 81.8605 40.3746 81.7229 40.2438C81.5921 40.1131 81.3753 40.0064 81.0725 39.9238L80.3291 39.7276C79.4412 39.4936 78.9973 38.9877 78.9973 38.21C78.9973 37.7901 79.1625 37.4529 79.4929 37.1982C79.8301 36.9435 80.2603 36.8162 80.7834 36.8162C81.3134 36.8162 81.747 36.9573 82.0842 37.2395C82.4284 37.5148 82.6211 37.8658 82.6624 38.2926H81.7745C81.7057 38.0654 81.5818 37.8865 81.4028 37.7557C81.2308 37.6249 81.0243 37.5596 80.7834 37.5596C80.5287 37.5596 80.3154 37.6181 80.1433 37.7351C79.9781 37.8521 79.8955 38.0069 79.8955 38.1996C79.8955 38.3855 79.9574 38.5369 80.0813 38.6539C80.2052 38.7709 80.4048 38.8673 80.6801 38.943L81.5061 39.1598C82.3871 39.38 82.8276 39.8894 82.8276 40.6878C82.8276 41.1833 82.6521 41.5585 82.301 41.8131C81.95 42.0609 81.4923 42.1848 80.9279 42.1848ZM86.0073 42.1332C85.5323 42.1332 85.1504 41.9989 84.8613 41.7305C84.5722 41.4621 84.4277 41.0698 84.4277 40.5536V37.7351H83.3333V36.9195H84.4277V35.4844H85.3155V36.9195H86.8022V37.7351H85.3155V40.44C85.3155 40.7635 85.3844 40.9906 85.522 41.1214C85.6597 41.2522 85.8765 41.3176 86.1724 41.3176C86.434 41.3176 86.6439 41.2831 86.8022 41.2143V42.0093C86.5544 42.0919 86.2895 42.1332 86.0073 42.1332ZM88.8346 35.3605C88.7176 35.4775 88.5696 35.536 88.3907 35.536C88.2117 35.536 88.0603 35.4775 87.9364 35.3605C87.8125 35.2366 87.7506 35.0852 87.7506 34.9062C87.7506 34.7342 87.8125 34.5862 87.9364 34.4623C88.0603 34.3384 88.2117 34.2765 88.3907 34.2765C88.5696 34.2765 88.7176 34.3384 88.8346 34.4623C88.9516 34.5862 89.0101 34.7342 89.0101 34.9062C89.0101 35.0852 88.9516 35.2366 88.8346 35.3605ZM87.9364 42.0815V36.9195H88.8243V42.0815H87.9364ZM90.5074 42.0815V36.9195H91.3953V37.7144C91.7463 37.1156 92.2935 36.8162 93.0368 36.8162C93.6219 36.8162 94.0933 37.0055 94.4512 37.384C94.8091 37.7626 94.9881 38.2685 94.9881 38.9017V42.0815H94.1105V39.0359C94.1105 38.6023 94.0004 38.2616 93.7802 38.0138C93.5599 37.7592 93.2639 37.6318 92.8923 37.6318C92.4655 37.6318 92.1076 37.8004 91.8186 38.1377C91.5364 38.475 91.3953 38.9361 91.3953 39.5211V42.0815H90.5074ZM98.8583 44.3425C98.1769 44.3425 97.6091 44.1739 97.1548 43.8367C96.7074 43.5063 96.4424 43.0795 96.3598 42.5565H97.2271C97.4542 43.2241 98.0048 43.5579 98.8789 43.5579C99.3676 43.5579 99.7599 43.3996 100.056 43.083C100.359 42.7733 100.51 42.3362 100.51 41.7718V41.1627C100.324 41.438 100.073 41.6583 99.7565 41.8234C99.4399 41.9886 99.0923 42.0712 98.7137 42.0712C97.9911 42.0712 97.3888 41.82 96.907 41.3176C96.4252 40.8082 96.1843 40.1819 96.1843 39.4386C96.1843 38.7021 96.4252 38.0826 96.907 37.5802C97.3957 37.0709 97.9979 36.8162 98.7137 36.8162C99.0923 36.8162 99.4399 36.8988 99.7565 37.064C100.073 37.2292 100.324 37.446 100.51 37.7144V36.9195H101.398V41.7615C101.398 42.5874 101.157 43.2241 100.675 43.6715C100.2 44.1188 99.5947 44.3425 98.8583 44.3425ZM97.5781 40.7394C97.9016 41.0767 98.3214 41.2453 98.8376 41.2453C99.3538 41.2453 99.7737 41.0767 100.097 40.7394C100.421 40.3953 100.582 39.9616 100.582 39.4386C100.582 38.9155 100.417 38.4853 100.087 38.148C99.7634 37.8039 99.347 37.6318 98.8376 37.6318C98.3283 37.6318 97.9085 37.8039 97.5781 38.148C97.2546 38.4853 97.0928 38.9155 97.0928 39.4386C97.0928 39.9616 97.2546 40.3953 97.5781 40.7394ZM111.94 42.0815H111.115L106.654 36.3723V42.0815H105.694V34.7514H106.531L110.991 40.4606V34.7514H111.94V42.0815ZM115.865 42.1848C115.115 42.1848 114.492 41.9301 113.997 41.4208C113.508 40.9115 113.264 40.2714 113.264 39.5005C113.264 38.7227 113.501 38.0826 113.976 37.5802C114.458 37.0709 115.094 36.8162 115.886 36.8162C116.684 36.8162 117.311 37.0984 117.765 37.6628C118.219 38.2272 118.419 38.9189 118.364 39.738H114.162C114.176 40.206 114.348 40.5983 114.678 40.9149C115.008 41.2246 115.408 41.3795 115.876 41.3795C116.578 41.3795 117.077 41.0904 117.373 40.5123H118.281C118.15 40.9941 117.872 41.3933 117.445 41.7099C117.018 42.0265 116.492 42.1848 115.865 42.1848ZM116.877 37.9725C116.595 37.7247 116.254 37.6008 115.855 37.6008C115.456 37.6008 115.098 37.7213 114.781 37.9622C114.472 38.2031 114.279 38.561 114.203 39.0359H117.424C117.342 38.5679 117.159 38.2134 116.877 37.9725ZM121.844 42.1848C121.094 42.1848 120.471 41.9301 119.975 41.4208C119.487 40.9115 119.242 40.2714 119.242 39.5005C119.242 38.7227 119.48 38.0826 119.955 37.5802C120.437 37.0709 121.073 36.8162 121.865 36.8162C122.663 36.8162 123.289 37.0984 123.744 37.6628C124.198 38.2272 124.398 38.9189 124.342 39.738H120.141C120.154 40.206 120.326 40.5983 120.657 40.9149C120.987 41.2246 121.386 41.3795 121.854 41.3795C122.556 41.3795 123.055 41.0904 123.351 40.5123H124.26C124.129 40.9941 123.85 41.3933 123.424 41.7099C122.997 42.0265 122.47 42.1848 121.844 42.1848ZM122.856 37.9725C122.574 37.7247 122.233 37.6008 121.834 37.6008C121.435 37.6008 121.077 37.7213 120.76 37.9622C120.45 38.2031 120.258 38.561 120.182 39.0359H123.403C123.32 38.5679 123.138 38.2134 122.856 37.9725ZM127.751 42.1848C127.035 42.1848 126.432 41.9232 125.944 41.4001C125.462 40.8771 125.221 40.2438 125.221 39.5005C125.221 38.7572 125.462 38.1239 125.944 37.6008C126.432 37.0778 127.035 36.8162 127.751 36.8162C128.129 36.8162 128.48 36.9022 128.804 37.0743C129.134 37.2395 129.389 37.4529 129.568 37.7144V34.3384H130.455V42.0815H129.568V41.2866C129.389 41.5481 129.134 41.7649 128.804 41.937C128.48 42.1022 128.129 42.1848 127.751 42.1848ZM127.885 41.3692C128.394 41.3692 128.814 41.1902 129.144 40.8323C129.475 40.4744 129.64 40.0305 129.64 39.5005C129.64 38.9705 129.475 38.5266 129.144 38.1687C128.814 37.8108 128.394 37.6318 127.885 37.6318C127.369 37.6318 126.945 37.8108 126.615 38.1687C126.284 38.5266 126.119 38.9705 126.119 39.5005C126.119 40.0305 126.284 40.4744 126.615 40.8323C126.945 41.1902 127.369 41.3692 127.885 41.3692ZM133.789 42.1848C133.211 42.1848 132.726 42.0437 132.333 41.7615C131.948 41.4793 131.734 41.087 131.693 40.5845H132.602C132.657 40.8736 132.794 41.087 133.015 41.2246C133.242 41.3623 133.503 41.4311 133.799 41.4311C134.095 41.4311 134.333 41.3726 134.512 41.2556C134.697 41.1386 134.79 40.97 134.79 40.7497C134.79 40.5432 134.722 40.3746 134.584 40.2438C134.453 40.1131 134.236 40.0064 133.933 39.9238L133.19 39.7276C132.302 39.4936 131.858 38.9877 131.858 38.21C131.858 37.7901 132.024 37.4529 132.354 37.1982C132.691 36.9435 133.121 36.8162 133.644 36.8162C134.174 36.8162 134.608 36.9573 134.945 37.2395C135.289 37.5148 135.482 37.8658 135.523 38.2926H134.636C134.567 38.0654 134.443 37.8865 134.264 37.7557C134.092 37.6249 133.885 37.5596 133.644 37.5596C133.39 37.5596 133.176 37.6181 133.004 37.7351C132.839 37.8521 132.757 38.0069 132.757 38.1996C132.757 38.3855 132.818 38.5369 132.942 38.6539C133.066 38.7709 133.266 38.8673 133.541 38.943L134.367 39.1598C135.248 39.38 135.689 39.8894 135.689 40.6878C135.689 41.1833 135.513 41.5585 135.162 41.8131C134.811 42.0609 134.353 42.1848 133.789 42.1848ZM145.817 42.0815H144.991L140.531 36.3723V42.0815H139.571V34.7514H140.407L144.867 40.4606V34.7514H145.817V42.0815ZM149.742 42.1848C148.991 42.1848 148.368 41.9301 147.873 41.4208C147.384 40.9115 147.14 40.2714 147.14 39.5005C147.14 38.7227 147.377 38.0826 147.852 37.5802C148.334 37.0709 148.971 36.8162 149.762 36.8162C150.561 36.8162 151.187 37.0984 151.641 37.6628C152.095 38.2272 152.295 38.9189 152.24 39.738H148.038C148.052 40.206 148.224 40.5983 148.554 40.9149C148.885 41.2246 149.284 41.3795 149.752 41.3795C150.454 41.3795 150.953 41.0904 151.249 40.5123H152.157C152.027 40.9941 151.748 41.3933 151.321 41.7099C150.894 42.0265 150.368 42.1848 149.742 42.1848ZM150.753 37.9725C150.471 37.7247 150.13 37.6008 149.731 37.6008C149.332 37.6008 148.974 37.7213 148.657 37.9622C148.348 38.2031 148.155 38.561 148.079 39.0359H151.3C151.218 38.5679 151.035 38.2134 150.753 37.9725ZM157.878 42.0815L156.598 38.3752L155.328 42.0815H154.544L152.789 36.9195H153.718L154.967 40.6878L156.258 36.9195H156.939L158.23 40.6878L159.479 36.9195H160.418L158.663 42.0815H157.878ZM163.818 42.0815V34.7514H164.778V42.0815H163.818ZM168.624 42.1848C167.908 42.1848 167.306 41.9232 166.817 41.4001C166.335 40.8771 166.094 40.2438 166.094 39.5005C166.094 38.7572 166.335 38.1239 166.817 37.6008C167.306 37.0778 167.908 36.8162 168.624 36.8162C169.002 36.8162 169.353 36.9022 169.677 37.0743C170.007 37.2395 170.262 37.4529 170.441 37.7144V34.3384H171.329V42.0815H170.441V41.2866C170.262 41.5481 170.007 41.7649 169.677 41.937C169.353 42.1022 169.002 42.1848 168.624 42.1848ZM168.758 41.3692C169.267 41.3692 169.687 41.1902 170.018 40.8323C170.348 40.4744 170.513 40.0305 170.513 39.5005C170.513 38.9705 170.348 38.5266 170.018 38.1687C169.687 37.8108 169.267 37.6318 168.758 37.6318C168.242 37.6318 167.819 37.8108 167.488 38.1687C167.158 38.5266 166.993 38.9705 166.993 39.5005C166.993 40.0305 167.158 40.4744 167.488 40.8323C167.819 41.1902 168.242 41.3692 168.758 41.3692ZM175.199 42.1848C174.449 42.1848 173.826 41.9301 173.33 41.4208C172.842 40.9115 172.597 40.2714 172.597 39.5005C172.597 38.7227 172.835 38.0826 173.31 37.5802C173.792 37.0709 174.428 36.8162 175.22 36.8162C176.018 36.8162 176.644 37.0984 177.099 37.6628C177.553 38.2272 177.753 38.9189 177.698 39.738H173.496C173.509 40.206 173.681 40.5983 174.012 40.9149C174.342 41.2246 174.741 41.3795 175.209 41.3795C175.911 41.3795 176.41 41.0904 176.706 40.5123H177.615C177.484 40.9941 177.205 41.3933 176.779 41.7099C176.352 42.0265 175.825 42.1848 175.199 42.1848ZM176.211 37.9725C175.929 37.7247 175.588 37.6008 175.189 37.6008C174.79 37.6008 174.432 37.7213 174.115 37.9622C173.805 38.2031 173.613 38.561 173.537 39.0359H176.758C176.675 38.5679 176.493 38.2134 176.211 37.9725ZM181.106 42.1848C180.39 42.1848 179.788 41.9232 179.299 41.4001C178.817 40.8771 178.576 40.2438 178.576 39.5005C178.576 38.7572 178.817 38.1239 179.299 37.6008C179.788 37.0778 180.39 36.8162 181.106 36.8162C181.484 36.8162 181.835 36.9022 182.159 37.0743C182.489 37.2395 182.744 37.4529 182.923 37.7144V36.9195H183.811V42.0815H182.923V41.2866C182.744 41.5481 182.489 41.7649 182.159 41.937C181.835 42.1022 181.484 42.1848 181.106 42.1848ZM181.24 41.3692C181.749 41.3692 182.169 41.1902 182.499 40.8323C182.83 40.4744 182.995 40.0305 182.995 39.5005C182.995 38.9705 182.83 38.5266 182.499 38.1687C182.169 37.8108 181.749 37.6318 181.24 37.6318C180.724 37.6318 180.3 37.8108 179.97 38.1687C179.64 38.5266 179.474 38.9705 179.474 39.5005C179.474 40.0305 179.64 40.4744 179.97 40.8323C180.3 41.1902 180.724 41.3692 181.24 41.3692ZM187.144 42.1848C186.566 42.1848 186.081 42.0437 185.688 41.7615C185.303 41.4793 185.089 41.087 185.048 40.5845H185.957C186.012 40.8736 186.149 41.087 186.37 41.2246C186.597 41.3623 186.858 41.4311 187.154 41.4311C187.45 41.4311 187.688 41.3726 187.867 41.2556C188.053 41.1386 188.145 40.97 188.145 40.7497C188.145 40.5432 188.077 40.3746 187.939 40.2438C187.808 40.1131 187.591 40.0064 187.289 39.9238L186.545 39.7276C185.657 39.4936 185.213 38.9877 185.213 38.21C185.213 37.7901 185.379 37.4529 185.709 37.1982C186.046 36.9435 186.476 36.8162 186.999 36.8162C187.529 36.8162 187.963 36.9573 188.3 37.2395C188.644 37.5148 188.837 37.8658 188.878 38.2926H187.991C187.922 38.0654 187.798 37.8865 187.619 37.7557C187.447 37.6249 187.24 37.5596 186.999 37.5596C186.745 37.5596 186.531 37.6181 186.359 37.7351C186.194 37.8521 186.112 38.0069 186.112 38.1996C186.112 38.3855 186.174 38.5369 186.297 38.6539C186.421 38.7709 186.621 38.8673 186.896 38.943L187.722 39.1598C188.603 39.38 189.044 39.8894 189.044 40.6878C189.044 41.1833 188.868 41.5585 188.517 41.8131C188.166 42.0609 187.708 42.1848 187.144 42.1848Z" fill="#4F4F4F"/>
</svg>
